<svg width="478" height="494" viewBox="0 0 478 494" fill="none" xmlns="http://www.w3.org/2000/svg">
<g clip-path="url(#clip0_155_40)">
<mask id="mask0_155_40" style="mask-type:luminance" maskUnits="userSpaceOnUse" x="0" y="0" width="478" height="494">
<path d="M478 0H0V494H478V0Z" fill="white"/>
</mask>
<g mask="url(#mask0_155_40)">
<path d="M142.495 22.714L109.485 11.056L76.7964 22.556C72.6226 24.4942 68.9623 25.6546 68.9623 29.4776V48.511C68.9623 61.7289 72.4855 74.8277 79.7313 86.391C85.8294 96.1219 95.2713 106.142 109.806 112.511C123.168 108.243 133.142 96.8641 139.239 87.1331C146.486 75.5687 150.008 62.4721 150.008 49.2543V32.1378C150.008 26.686 147.07 24.0246 142.495 22.714Z" fill="#F2F1EE"/>
<path d="M120.449 53.4399C120.449 48.3997 116.357 44.3131 111.308 44.3131C106.261 44.3131 102.169 48.3997 102.169 53.4399C102.169 57.6111 104.99 61.0902 108.816 62.1783V75.8245H113.803V62.1783C117.63 61.0891 120.449 57.6111 120.449 53.4399Z" fill="#E7E6E0"/>
<path d="M231.539 455.447V490.007H282.153H337.976V455.447H231.539Z" fill="#F2F1EE"/>
<path d="M227.073 445.785V455.447H341.698V445.785H282.153H227.073Z" fill="#E7E6E0"/>
<path d="M284.385 490.008H337.975V455.447H341.696V445.784H282.153V454.552L284.385 490.008Z" fill="#E7E6E0"/>
<path d="M246.425 461.02V466.222H268.01V461.02H246.425Z" fill="#D9D9D1"/>
<path d="M271.364 483.712H243.646V472.727H271.364V483.712Z" fill="#FEFEFE"/>
<path d="M247.914 411.268V445.829H298.526H354.351V411.268H247.914Z" fill="#F2F1EE"/>
<path d="M243.448 401.607V411.269H358.074V401.607H298.527H243.448Z" fill="#E7E6E0"/>
<path d="M300.761 445.831H354.351V411.269H358.074V401.608H298.527V410.377L300.761 445.831Z" fill="#E7E6E0"/>
<path d="M262.8 416.843V422.045H284.387V416.843H262.8Z" fill="#D9D9D1"/>
<path d="M287.74 439.534H260.023V428.551H287.74V439.534Z" fill="#FEFEFE"/>
<path d="M477.04 490.273C477.04 490.433 370.242 490.562 238.531 490.562C106.775 490.562 0 490.433 0 490.273C0 490.112 106.775 489.983 238.531 489.983C370.242 489.983 477.04 490.112 477.04 490.273Z" fill="#0D151D"/>
<path d="M378.585 219.463H179.545C175.51 219.463 172.236 216.195 172.236 212.164V29.3084C172.236 25.2774 175.51 22.0096 179.545 22.0096H378.585C382.623 22.0096 385.894 25.2774 385.894 29.3084V212.164C385.894 216.195 382.623 219.463 378.585 219.463Z" fill="#FEFEFE"/>
<path d="M378.585 219.463C378.585 219.463 378.762 219.444 379.11 219.422C379.458 219.398 379.979 219.326 380.64 219.136C381.294 218.93 382.096 218.595 382.913 217.982C383.721 217.375 384.56 216.492 385.125 215.274C385.757 214.071 385.885 212.551 385.823 210.89C385.818 209.227 385.814 207.409 385.808 205.438C385.801 201.498 385.793 196.951 385.783 191.834C385.76 171.357 385.729 141.737 385.69 105.139C385.679 86.8361 385.667 66.7913 385.654 45.2711C385.645 39.8961 385.635 34.4287 385.625 28.8735C385.495 26.1787 383.633 23.642 381.051 22.7118C379.772 22.18 378.372 22.2657 376.938 22.2623C375.514 22.2634 374.085 22.2634 372.649 22.2645C361.169 22.269 349.353 22.2723 337.237 22.2768C288.773 22.2835 235.491 22.2912 179.565 22.299C177.882 22.3001 176.218 22.9165 174.954 24.0158C173.679 25.1028 172.827 26.6627 172.606 28.3149C172.49 29.1271 172.536 30.0039 172.527 30.8706V33.4674C172.526 35.1976 172.526 36.9232 172.526 38.6478C172.526 45.5437 172.526 52.3952 172.525 59.1955C172.523 72.7972 172.522 86.1986 172.52 99.3675C172.515 125.704 172.509 151.11 172.503 175.31C172.499 187.411 172.496 199.21 172.491 210.674C172.497 211.386 172.472 212.12 172.522 212.797C172.599 213.48 172.738 214.16 173.004 214.795C173.517 216.071 174.412 217.178 175.532 217.958C176.656 218.733 177.998 219.174 179.356 219.204C180.756 219.207 182.151 219.211 183.541 219.216C189.11 219.218 194.591 219.22 199.979 219.224C221.531 219.236 241.607 219.248 259.935 219.258C296.587 219.297 326.247 219.328 346.752 219.351C356.997 219.374 364.951 219.393 370.355 219.405C373.048 219.417 375.104 219.427 376.494 219.434C377.876 219.443 378.585 219.463 378.585 219.463C378.585 219.463 377.876 219.483 376.494 219.493C375.104 219.5 373.048 219.509 370.355 219.522C364.951 219.534 356.997 219.553 346.752 219.576C326.247 219.598 296.587 219.629 259.935 219.669C241.607 219.679 221.531 219.691 199.979 219.703C194.591 219.707 189.11 219.709 183.541 219.711C182.147 219.709 180.747 219.705 179.341 219.703C177.891 219.672 176.45 219.2 175.245 218.371C174.044 217.537 173.085 216.352 172.533 214.985C172.248 214.304 172.097 213.575 172.016 212.842C171.961 212.093 171.989 211.395 171.981 210.674C171.977 199.21 171.973 187.411 171.969 175.31C171.963 151.11 171.957 125.704 171.952 99.3675C171.951 86.1986 171.95 72.7972 171.947 59.1955C171.947 52.3952 171.947 45.5437 171.946 38.6478C171.946 36.9232 171.946 35.1976 171.946 33.4674V30.8706C171.957 30.0083 171.906 29.1416 172.031 28.2337C172.272 26.4446 173.194 24.7546 174.574 23.5785C175.94 22.388 177.748 21.7194 179.565 21.7194C235.491 21.7272 288.773 21.736 337.237 21.7427C349.353 21.7472 361.169 21.7505 372.649 21.755C374.085 21.755 375.514 21.7561 376.938 21.7561C378.332 21.7605 379.852 21.6704 381.227 22.2412C383.993 23.2403 385.983 25.9573 386.119 28.8434C386.125 34.4087 386.13 39.8861 386.135 45.2711C386.123 66.7913 386.111 86.8361 386.1 105.139C386.061 141.737 386.029 171.357 386.008 191.834C385.998 196.951 385.989 201.498 385.981 205.438C385.977 207.409 385.972 209.227 385.968 210.89C386.023 212.538 385.882 214.116 385.231 215.325C384.648 216.558 383.789 217.446 382.965 218.053C382.134 218.665 381.319 218.994 380.656 219.191C379.988 219.375 379.462 219.437 379.112 219.452C378.762 219.464 378.585 219.463 378.585 219.463Z" fill="#0D151D"/>
<path d="M188.361 35.6937C188.361 37.7309 186.705 39.382 184.665 39.382C182.626 39.382 180.973 37.7309 180.973 35.6937C180.973 33.6565 182.626 32.0054 184.665 32.0054C186.705 32.0054 188.361 33.6565 188.361 35.6937Z" fill="#0D151D"/>
<path d="M199.149 35.6937C199.149 37.7309 197.495 39.382 195.455 39.382C193.415 39.382 191.762 37.7309 191.762 35.6937C191.762 33.6565 193.415 32.0054 195.455 32.0054C197.495 32.0054 199.149 33.6565 199.149 35.6937Z" fill="#0D151D"/>
<path d="M209.936 35.6937C209.936 37.7309 208.283 39.382 206.242 39.382C204.203 39.382 202.551 37.7309 202.551 35.6937C202.551 33.6565 204.203 32.0054 206.242 32.0054C208.283 32.0054 209.936 33.6565 209.936 35.6937Z" fill="#0D151D"/>
<path d="M385.894 46.1567C385.894 46.3169 338.062 46.446 279.071 46.446C220.059 46.446 172.236 46.3169 172.236 46.1567C172.236 45.9965 220.059 45.8674 279.071 45.8674C338.062 45.8674 385.894 45.9965 385.894 46.1567Z" fill="#0D151D"/>
<path d="M312.655 116.097C312.655 116.097 312.72 115.966 312.856 115.718L312.969 115.51L313.075 115.242C313.148 115.046 313.245 114.823 313.296 114.551C313.326 114.417 313.365 114.276 313.394 114.125C313.412 113.973 313.43 113.812 313.45 113.644C313.477 113.475 313.479 113.297 313.478 113.111C313.473 112.926 313.493 112.733 313.469 112.533C313.432 111.727 313.236 110.811 312.921 109.816C312.289 107.817 311.048 105.54 309.313 103.126C307.58 100.704 305.316 98.1632 302.615 95.5653C299.913 92.9664 296.741 90.3419 293.164 87.766C289.584 85.1941 285.592 82.6708 281.197 80.3738C278.999 79.2276 276.7 78.1432 274.3 77.1564C271.903 76.1659 269.399 75.2851 266.795 74.5876C264.193 73.9033 261.478 73.3748 258.696 73.3553C257.311 73.3544 255.902 73.4686 254.561 73.8875C253.892 74.0972 253.249 74.3885 252.66 74.7696C252.083 75.1691 251.573 75.6619 251.177 76.2463C250.804 76.8441 250.56 77.511 250.428 78.2001C250.32 78.8934 250.315 79.599 250.396 80.2949C250.558 81.6886 251.03 83.0224 251.594 84.2858C252.746 86.8156 254.334 89.079 256.02 91.1741C257.72 93.2662 259.547 95.1911 261.429 96.9759C263.31 98.763 265.238 100.419 267.182 101.957C271.074 105.029 275.007 107.645 278.817 109.863C282.629 112.077 286.323 113.9 289.799 115.305C293.274 116.71 296.521 117.74 299.439 118.334C302.354 118.932 304.941 119.136 307.023 118.899C308.063 118.781 308.979 118.586 309.73 118.292C309.922 118.233 310.092 118.135 310.263 118.063C310.433 117.987 310.595 117.915 310.738 117.821C310.883 117.735 311.023 117.651 311.155 117.573C311.281 117.486 311.393 117.393 311.504 117.311C311.731 117.153 311.897 116.974 312.045 116.827L312.248 116.622L312.391 116.433C312.564 116.209 312.655 116.097 312.655 116.097C312.655 116.097 312.573 116.215 312.405 116.444L312.262 116.636L312.062 116.844C311.915 116.994 311.752 117.176 311.524 117.337C311.414 117.421 311.303 117.516 311.177 117.605C311.044 117.684 310.904 117.769 310.758 117.858C310.615 117.953 310.453 118.027 310.282 118.104C310.11 118.177 309.94 118.276 309.748 118.337C308.994 118.638 308.074 118.839 307.03 118.962C304.939 119.21 302.343 119.015 299.422 118.424C296.494 117.837 293.238 116.814 289.755 115.413C286.27 114.012 282.569 112.192 278.748 109.98C274.931 107.765 270.987 105.149 267.088 102.075C265.14 100.535 263.207 98.879 261.321 97.0892C259.433 95.302 257.601 93.3734 255.895 91.2756C254.202 89.1736 252.606 86.9013 251.444 84.3516C250.875 83.0778 250.398 81.7324 250.233 80.3132C250.151 79.6052 250.155 78.8839 250.266 78.171C250.401 77.4633 250.653 76.7762 251.039 76.1571C251.448 75.5528 251.975 75.0438 252.568 74.6329C253.174 74.2403 253.831 73.9444 254.512 73.7306C255.876 73.3047 257.3 73.1916 258.697 73.192C261.499 73.2128 264.225 73.744 266.837 74.4313C269.449 75.1322 271.957 76.0178 274.36 77.011C276.764 78.0016 279.067 79.0911 281.268 80.2402C285.667 82.5444 289.662 85.075 293.244 87.6547C296.823 90.2392 299.994 92.873 302.696 95.4808C305.396 98.0879 307.658 100.642 309.387 103.073C311.119 105.499 312.355 107.786 312.982 109.796C313.295 110.797 313.486 111.72 313.517 112.53C313.542 112.731 313.519 112.927 313.523 113.112C313.522 113.299 313.52 113.479 313.492 113.647C313.47 113.816 313.45 113.978 313.431 114.132C313.401 114.284 313.36 114.424 313.328 114.559C313.274 114.832 313.175 115.055 313.098 115.251L312.987 115.519L312.869 115.727C312.73 115.972 312.655 116.097 312.655 116.097Z" fill="#4A6CD1"/>
<path d="M319.02 101.122C319.02 101.122 319.025 100.976 319.04 100.694L319.054 100.457C319.053 100.369 319.041 100.273 319.035 100.169C319.018 99.96 319.012 99.7176 318.942 99.4497C318.913 99.3154 318.889 99.1717 318.85 99.0226C318.801 98.8767 318.748 98.7245 318.695 98.5633C318.647 98.3996 318.573 98.2388 318.495 98.0709C318.412 97.9046 318.347 97.7205 318.239 97.5496C317.864 96.8368 317.296 96.0898 316.586 95.3234C315.163 93.7846 313.071 92.2523 310.474 90.8049C307.874 89.3516 304.743 88.0133 301.193 86.8113C297.642 85.6089 293.653 84.5829 289.319 83.7737C284.985 82.9702 280.297 82.3846 275.342 82.176C272.865 82.074 270.322 82.0698 267.73 82.1982C265.139 82.3222 262.497 82.5897 259.843 83.0668C257.198 83.5541 254.516 84.2331 251.99 85.3984C250.738 85.9869 249.509 86.6899 248.475 87.6397C247.96 88.1143 247.5 88.6503 247.13 89.2469C246.778 89.8538 246.527 90.5171 246.417 91.2145C246.334 91.9142 246.394 92.6212 246.57 93.3012C246.767 93.9751 247.062 94.6142 247.433 95.2096C248.171 96.4022 249.168 97.4099 250.216 98.3134C252.336 100.114 254.737 101.485 257.156 102.664C259.584 103.834 262.056 104.8 264.52 105.613C266.983 106.431 269.434 107.109 271.847 107.674C276.677 108.801 281.349 109.492 285.742 109.879C290.135 110.26 294.254 110.339 297.999 110.132C301.742 109.925 305.117 109.475 308.012 108.77C310.903 108.072 313.331 107.156 315.116 106.055C316.007 105.507 316.753 104.94 317.306 104.354C317.457 104.218 317.568 104.058 317.693 103.92C317.814 103.779 317.928 103.644 318.018 103.499C318.113 103.358 318.206 103.225 318.291 103.097C318.369 102.964 318.431 102.832 318.495 102.711C318.635 102.471 318.706 102.239 318.778 102.043C318.812 101.944 318.85 101.855 318.874 101.77L318.924 101.539C318.986 101.263 319.02 101.122 319.02 101.122C319.02 101.122 318.997 101.265 318.941 101.542L318.894 101.776C318.871 101.862 318.834 101.951 318.801 102.051C318.731 102.25 318.662 102.483 318.525 102.725C318.462 102.848 318.398 102.982 318.323 103.116C318.237 103.245 318.146 103.381 318.052 103.523C317.963 103.669 317.848 103.806 317.726 103.948C317.602 104.087 317.491 104.25 317.342 104.387C316.787 104.979 316.041 105.554 315.148 106.108C313.362 107.223 310.931 108.151 308.034 108.86C305.135 109.574 301.753 110.032 298.003 110.247C294.254 110.462 290.131 110.391 285.731 110.014C281.332 109.633 276.652 108.945 271.812 107.821C269.395 107.258 266.939 106.58 264.47 105.763C262.001 104.948 259.522 103.983 257.085 102.809C254.659 101.627 252.246 100.251 250.11 98.4372C249.052 97.5256 248.047 96.5101 247.293 95.2961C246.917 94.6899 246.615 94.0365 246.412 93.3448C246.232 92.6463 246.166 91.9149 246.253 91.1909C246.364 90.4703 246.627 89.786 246.989 89.1625C247.369 88.5492 247.839 88.0023 248.363 87.5188C249.418 86.5539 250.657 85.8445 251.922 85.2508C254.468 84.0771 257.16 83.3973 259.814 82.9079C262.477 82.4309 265.126 82.1653 267.722 82.0421C270.321 81.9157 272.868 81.9217 275.348 82.0252C280.311 82.2394 285.003 82.8289 289.344 83.6401C293.683 84.4566 297.676 85.49 301.23 86.7017C304.783 87.9133 307.917 89.2597 310.518 90.7244C313.119 92.1824 315.21 93.727 316.632 95.2803C317.342 96.0544 317.909 96.8069 318.282 97.5263C318.389 97.6982 318.452 97.8842 318.534 98.0516C318.613 98.2208 318.688 98.3837 318.734 98.5495C318.786 98.7116 318.836 98.8668 318.885 99.0139C318.922 99.1638 318.946 99.3086 318.974 99.444C319.042 99.7138 319.046 99.9581 319.059 100.168C319.064 100.272 319.076 100.37 319.075 100.458L319.057 100.695C319.036 100.978 319.02 101.122 319.02 101.122Z" fill="#4A6CD1"/>
<path d="M301.777 63.0153C301.777 63.0153 301.644 62.956 301.389 62.835L301.173 62.7332L300.901 62.6425C300.701 62.579 300.472 62.4937 300.199 62.4572C300.063 62.4343 299.92 62.4023 299.768 62.3817C299.613 62.3725 299.452 62.3621 299.282 62.3518C299.113 62.3335 298.935 62.3411 298.75 62.3519C298.566 62.3661 298.37 62.3559 298.171 62.3911C297.369 62.47 296.463 62.7135 295.485 63.0805C293.521 63.8167 291.311 65.1742 288.991 67.031C286.663 68.8866 284.242 71.2784 281.789 74.1093C279.336 76.9404 276.881 80.2423 274.497 83.9455C272.118 87.6514 269.809 91.7678 267.748 96.2714C266.721 98.5233 265.758 100.873 264.899 103.318C264.039 105.762 263.29 108.306 262.732 110.939C262.187 113.571 261.806 116.307 261.934 119.083C262.007 120.463 262.196 121.864 262.687 123.179C262.934 123.834 263.257 124.461 263.669 125.029C264.1 125.582 264.62 126.065 265.226 126.429C265.843 126.77 266.523 126.979 267.219 127.074C267.918 127.145 268.623 127.113 269.314 126.996C270.699 126.761 272.007 126.22 273.24 125.591C275.708 124.31 277.886 122.605 279.89 120.814C281.891 119.008 283.718 117.085 285.4 115.114C287.088 113.145 288.638 111.133 290.073 109.113C292.937 105.071 295.34 101.009 297.353 97.093C299.363 93.1738 300.99 89.395 302.208 85.8542C303.427 82.3134 304.283 79.0213 304.721 76.0788C305.163 73.1413 305.229 70.5509 304.88 68.4848C304.707 67.4549 304.462 66.5518 304.128 65.8182C304.059 65.6288 303.952 65.466 303.872 65.2985C303.787 65.1327 303.706 64.9741 303.605 64.8375C303.511 64.6966 303.421 64.5606 303.335 64.4332C303.241 64.3125 303.142 64.2047 303.053 64.1002C302.883 63.882 302.696 63.7257 302.54 63.5866L302.325 63.3948L302.128 63.2613C301.896 63.1012 301.777 63.0153 301.777 63.0153C301.777 63.0153 301.901 63.0914 302.137 63.2476L302.337 63.3786L302.557 63.5673C302.715 63.7063 302.906 63.8598 303.078 64.0777C303.167 64.1821 303.268 64.2897 303.363 64.4113C303.451 64.5397 303.542 64.6743 303.639 64.8148C303.742 64.9524 303.824 65.1107 303.91 65.2763C303.992 65.4437 304.102 65.6083 304.172 65.7986C304.514 66.5346 304.764 67.4415 304.944 68.4749C305.303 70.5486 305.247 73.1466 304.812 76.0921C304.382 79.0426 303.533 82.3439 302.318 85.8919C301.104 89.4411 299.483 93.2281 297.477 97.1558C295.464 101.08 293.061 105.15 290.197 109.201C288.761 111.224 287.209 113.242 285.52 115.217C283.835 117.193 282.004 119.121 279.999 120.933C277.987 122.731 275.803 124.444 273.315 125.736C272.072 126.372 270.751 126.919 269.342 127.157C268.638 127.277 267.916 127.311 267.199 127.236C266.484 127.14 265.782 126.924 265.144 126.572C264.518 126.196 263.981 125.697 263.538 125.128C263.114 124.544 262.784 123.903 262.533 123.236C262.034 121.898 261.845 120.482 261.77 119.091C261.642 116.293 262.028 113.545 262.575 110.906C263.135 108.263 263.887 105.714 264.752 103.266C265.612 100.817 266.578 98.462 267.609 96.2073C269.679 91.698 271.994 87.5796 274.382 83.8714C276.774 80.1659 279.238 76.865 281.701 74.0338C284.163 71.2039 286.593 68.813 288.931 66.9594C291.265 65.1053 293.486 63.7507 295.462 63.0207C296.447 62.6563 297.358 62.4164 298.165 62.3425C298.366 62.3081 298.563 62.3204 298.749 62.3072C298.935 62.2984 299.113 62.2908 299.283 62.3101C299.455 62.3225 299.616 62.334 299.772 62.3452C299.924 62.368 300.068 62.3999 300.204 62.425C300.479 62.4648 300.71 62.552 300.908 62.6191L301.182 62.714L301.397 62.8204C301.651 62.9473 301.777 63.0153 301.777 63.0153Z" fill="#4A6CD1"/>
<path d="M245.595 105.897C246.128 106.427 246.128 107.29 245.595 107.82C245.064 108.352 244.201 108.352 243.67 107.82C243.137 107.29 243.137 106.427 243.67 105.897C244.201 105.365 245.064 105.365 245.595 105.897Z" fill="#4A6CD1"/>
<path d="M322.462 62.3195C322.462 63.0705 321.852 63.6802 321.099 63.6802C320.347 63.6802 319.736 63.0705 319.736 62.3195C319.736 61.5685 320.347 60.9587 321.099 60.9587C321.852 60.9587 322.462 61.5685 322.462 62.3195Z" fill="#4A6CD1"/>
<path d="M254.199 115.752C254.199 115.942 254.043 116.097 253.853 116.097C253.662 116.097 253.506 115.942 253.506 115.752C253.506 115.56 253.662 115.405 253.853 115.405C254.043 115.405 254.199 115.56 254.199 115.752Z" fill="#4A6CD1"/>
<path d="M261.589 77.6292C261.589 77.8195 261.434 77.9752 261.242 77.9752C261.05 77.9752 260.896 77.8195 260.896 77.6292C260.896 77.4379 261.05 77.2832 261.242 77.2832C261.434 77.2832 261.589 77.4379 261.589 77.6292Z" fill="#4A6CD1"/>
<path d="M315.618 96.1586C315.618 96.3489 315.462 96.5047 315.272 96.5047C315.081 96.5047 314.925 96.3489 314.925 96.1586C314.925 95.9673 315.081 95.8126 315.272 95.8126C315.462 95.8126 315.618 95.9673 315.618 96.1586Z" fill="#4A6CD1"/>
<path d="M320.429 80.0413C320.429 80.2327 320.274 80.3874 320.084 80.3874C319.892 80.3874 319.736 80.2327 319.736 80.0413C319.736 79.8511 319.892 79.6953 320.084 79.6953C320.274 79.6953 320.429 79.8511 320.429 80.0413Z" fill="#4A6CD1"/>
<path d="M297.096 93.4094L292.813 93.4094L292.813 80.4908C292.813 76.6801 290.653 73.3634 287.492 71.6978C287.456 71.6789 287.422 71.6611 287.386 71.6433C286.029 70.949 284.492 70.5574 282.867 70.5574C279.569 70.5574 276.641 72.1673 274.83 74.6418C274.799 74.6852 274.768 74.7286 274.736 74.772C273.591 76.3897 272.918 78.3635 272.918 80.4908L272.911 96.6771L268.637 93.4093L268.637 80.4908C268.637 72.6558 275.021 66.2816 282.867 66.2816C290.712 66.2816 297.097 72.6558 297.097 80.4908L297.097 83.8109L297.097 83.9333L297.096 92.2456L297.096 92.4369L297.096 93.4094Z" fill="#4A6CD1"/>
<path d="M299.532 117.979H266.199C264.813 117.979 263.69 116.857 263.69 115.474V95.915C263.69 94.531 264.813 93.4083 266.199 93.4083H268.648H299.532C300.918 93.4083 302.041 94.531 302.041 95.915V115.474C302.041 116.857 300.918 117.979 299.532 117.979Z" fill="#4A6CD1"/>
<path d="M283.74 110.344H281.991V105.558C280.648 105.176 279.66 103.956 279.66 102.493C279.66 100.725 281.096 99.2917 282.867 99.2917C284.636 99.2917 286.071 100.725 286.071 102.493C286.071 103.956 285.083 105.176 283.74 105.558V110.344Z" fill="white"/>
<path d="M265.736 115.648C265.647 115.648 265.576 111.551 265.576 106.497C265.576 101.442 265.647 97.3458 265.736 97.3458C265.824 97.3458 265.894 101.442 265.894 106.497C265.894 111.551 265.824 115.648 265.736 115.648Z" fill="#FAF9F7"/>
<path d="M280.354 106.596C280.344 106.612 280.205 106.547 279.98 106.384C279.754 106.222 279.453 105.945 279.154 105.542C278.555 104.759 278.008 103.337 278.363 101.802C278.735 100.27 279.863 99.2428 280.75 98.8111C281.198 98.5853 281.59 98.4729 281.864 98.4295C282.139 98.385 282.295 98.3883 282.297 98.4072C282.311 98.4673 281.689 98.5252 280.858 99.0081C280.039 99.4698 279.015 100.459 278.673 101.874C278.344 103.292 278.814 104.636 279.339 105.414C279.865 106.218 280.393 106.548 280.354 106.596Z" fill="#FAF9F7"/>
<path d="M339.806 161.044H221.721C215.988 161.044 211.339 156.402 211.339 150.677V149.401C211.339 143.675 215.988 139.034 221.721 139.034H339.806C345.539 139.034 350.187 143.675 350.187 149.401V150.677C350.187 156.402 345.539 161.044 339.806 161.044Z" fill="#F2F1EE"/>
<path d="M340.827 191.222H222.742C217.009 191.222 212.361 186.582 212.361 180.856V179.58C212.361 173.855 217.009 169.213 222.742 169.213H340.827C346.561 169.213 351.206 173.855 351.206 179.58V180.856C351.206 186.582 346.561 191.222 340.827 191.222Z" fill="#F2F1EE"/>
<path d="M38.6445 489.606H28.6689L24.9708 444.765H36.7169L38.6445 489.606Z" fill="#0D151D"/>
<path d="M125.098 489.606H135.072L138.772 444.765H127.024L125.098 489.606Z" fill="#0D151D"/>
<path d="M145.627 450.442L17.228 453.452L13.3205 370.638C12.9383 362.53 19.4186 355.747 27.5479 355.747H136.944C145.198 355.747 151.725 362.732 151.154 370.954L145.627 450.442Z" fill="#4A6CD1"/>
<path d="M152.21 370.355C152.21 370.365 152.089 370.375 151.852 370.385C151.584 370.393 151.236 370.404 150.8 370.418C149.836 370.431 148.48 370.452 146.753 370.478C143.198 370.49 138.123 370.509 131.868 370.531C119.301 370.552 101.938 370.411 82.7731 370.855C63.5985 371.491 46.22 371.382 33.655 371.192C27.3708 371.093 22.2866 370.971 18.7746 370.865C17.0487 370.806 15.6938 370.759 14.73 370.727C14.2932 370.706 13.9467 370.689 13.6782 370.676C13.4419 370.661 13.3205 370.649 13.3205 370.638C13.3205 370.628 13.4419 370.621 13.6793 370.616C13.9478 370.616 14.2954 370.613 14.7322 370.611C15.696 370.617 17.052 370.627 18.7791 370.64C22.3323 370.674 27.4065 370.723 33.6606 370.783C46.2267 370.868 63.5863 370.912 82.7586 370.276C101.938 369.831 119.303 370.038 131.869 370.122C138.124 370.176 143.198 370.221 146.753 370.252C148.48 370.273 149.836 370.29 150.8 370.3C151.236 370.311 151.583 370.32 151.852 370.326C152.089 370.336 152.21 370.344 152.21 370.355Z" fill="#0D151D"/>
<path d="M60.1567 357.041C60.1923 357.234 56.1332 357.304 51.8201 359.538C47.4747 361.716 45.0367 364.957 44.9008 364.814C44.8496 364.777 45.3766 363.923 46.4919 362.754C47.6006 361.586 49.351 360.15 51.556 359.023C53.7633 357.903 55.955 357.329 57.5528 357.119C59.1561 356.902 60.1567 356.978 60.1567 357.041Z" fill="#0D151D"/>
<path d="M112.966 206.473L128.663 235.103C128.663 235.103 132.053 240.707 132.937 246.655C133.701 251.79 132.171 257.323 130.051 258.044C125.474 259.599 116.807 259.883 111.851 253.691C107.338 248.054 94.2061 218.449 94.2061 218.449L112.966 206.473Z" fill="#FBA585"/>
<path d="M170.011 424.791C170.049 424.79 170.086 424.412 169.98 423.737C169.868 423.068 169.593 422.09 168.912 421.054C168.737 420.801 168.564 420.528 168.276 420.279C168.004 420.032 167.534 419.843 167.082 420.01C166.855 420.082 166.631 420.288 166.552 420.541C166.468 420.797 166.51 421.05 166.577 421.256C166.725 421.68 166.947 421.983 167.133 422.333C167.547 423.03 167.889 423.723 168.419 424.507C168.686 424.908 169.288 425.239 169.837 425.145C170.377 425.077 170.814 424.814 171.208 424.538C171.971 423.986 172.643 423.357 173.221 422.686C173.51 422.351 173.772 422.005 174.014 421.655C174.24 421.306 174.509 420.954 174.61 420.47C174.713 420.002 174.536 419.389 174.005 419.178C173.467 418.984 173.029 419.254 172.73 419.466C172.121 419.97 171.756 420.487 171.385 420.988C170.678 421.986 170.287 422.903 170.067 423.542C169.85 424.186 169.799 424.559 169.837 424.57C169.946 424.614 170.308 423.129 171.743 421.252C172.1 420.808 172.542 420.266 173.036 419.89C173.288 419.71 173.603 419.594 173.794 419.691C173.995 419.762 174.107 420.064 174.041 420.355C173.977 420.654 173.751 420.976 173.518 421.311C173.284 421.641 173.03 421.966 172.754 422.281C172.2 422.911 171.557 423.507 170.839 424.027C170.493 424.276 170.116 424.481 169.766 424.523C169.414 424.566 169.136 424.427 168.904 424.126C168.464 423.487 168.042 422.697 167.635 422.041C167.44 421.698 167.205 421.365 167.104 421.079C166.996 420.778 167.056 420.584 167.265 420.499C167.749 420.301 168.219 420.846 168.546 421.309C169.905 423.232 169.888 424.83 170.011 424.791Z" fill="#0D151D"/>
<path d="M142.629 425.727L129.033 455.15L107.094 445.028L121.156 408.614L142.629 425.727Z" fill="#FBA585"/>
<path d="M131.603 453.187L123.658 468.312C123.658 468.312 143.992 489.306 142.082 494L94.2819 471.115L107.414 440.775L131.603 453.187Z" fill="#283C46"/>
<path d="M142.082 494C142.358 493.321 142.17 492.303 141.645 491.056C142.079 491.691 142.781 492.994 142.082 494Z" fill="#FEFEFE"/>
<path d="M142.082 494L134.842 490.533L94.2819 471.115L96.2707 467.308L141.358 490.673C141.358 490.673 141.482 490.817 141.645 491.055C142.17 492.302 142.358 493.321 142.082 494Z" fill="#A4AFAA"/>
<path d="M124.55 468.439C124.43 468.668 123.211 468.216 121.703 468.417C120.19 468.576 119.113 469.303 118.942 469.108C118.749 468.958 119.767 467.732 121.598 467.522C123.425 467.296 124.703 468.25 124.55 468.439Z" fill="#0D151D"/>
<path d="M128.57 472.912C128.514 473.162 127.313 473.075 126.046 473.681C124.762 474.25 124.05 475.22 123.823 475.099C123.586 475.031 124.079 473.588 125.668 472.865C127.249 472.127 128.671 472.687 128.57 472.912Z" fill="#0D151D"/>
<path d="M128.539 480.266C128.303 480.214 128.537 478.895 129.75 477.905C130.955 476.907 132.297 476.93 132.304 477.172C132.343 477.427 131.305 477.773 130.322 478.599C129.321 479.404 128.781 480.354 128.539 480.266Z" fill="#0D151D"/>
<path d="M126.829 462.613C126.629 462.779 125.713 461.944 124.35 461.403C123 460.832 121.761 460.783 121.735 460.525C121.681 460.292 123.098 459.908 124.694 460.57C126.294 461.219 127.032 462.485 126.829 462.613Z" fill="#0D151D"/>
<path d="M136.081 449.26L171.918 359.7C171.918 359.7 171.114 344.419 168.295 339.594C165.476 334.768 80.1023 306.619 80.1023 306.619C80.1023 306.619 58.3561 301.391 43.859 306.619C29.3619 311.846 18.4882 329.942 20.5016 339.995C22.515 350.048 31.0132 357.433 31.0132 357.433L93.7939 359.297L128.014 371.763L104.969 437.711L136.081 449.26Z" fill="#0D151D"/>
<path d="M167.957 388.059L168.765 420.454L144.604 421.045L141.124 382.17L167.957 388.059Z" fill="#FBA585"/>
<path d="M170.203 417.56L169.762 434.635C169.762 434.635 197.288 444.509 197.65 449.561L144.641 450.097L143.011 417.086L170.203 417.56Z" fill="#283C46"/>
<path d="M153.348 432.506C152.325 432.796 151.627 433.956 151.876 434.988C152.124 436.022 153.298 436.739 154.326 436.467C155.353 436.194 156.235 434.828 155.871 433.83C155.509 432.831 154.082 432.064 153.151 432.575" fill="#D9D9D1"/>
<path d="M197.65 449.561C197.598 448.831 196.979 448.001 195.96 447.116C196.631 447.495 197.831 448.353 197.65 449.561Z" fill="#FEFEFE"/>
<path d="M144.64 450.097L144.744 445.807L195.529 446.897C195.529 446.897 195.706 446.972 195.959 447.116C196.978 448.001 197.598 448.831 197.65 449.561L145.651 450.087L144.64 450.097Z" fill="#A4AFAA"/>
<path d="M170.618 434.356C170.613 434.614 169.319 434.744 168.054 435.589C166.767 436.399 166.122 437.526 165.883 437.426C165.643 437.378 166.014 435.829 167.564 434.833C169.104 433.825 170.673 434.118 170.618 434.356Z" fill="#0D151D"/>
<path d="M176.202 436.596C176.263 436.846 175.145 437.297 174.277 438.398C173.377 439.475 173.168 440.66 172.909 440.651C172.667 440.694 172.473 439.182 173.579 437.833C174.672 436.473 176.194 436.35 176.202 436.596Z" fill="#0D151D"/>
<path d="M179.427 443.209C179.192 443.265 178.819 441.978 179.469 440.556C180.109 439.129 181.325 438.558 181.436 438.772C181.584 438.983 180.805 439.751 180.291 440.927C179.747 442.09 179.683 443.18 179.427 443.209Z" fill="#0D151D"/>
<path d="M170.089 428.122C169.983 428.359 168.791 428.014 167.329 428.129C165.865 428.213 164.732 428.714 164.595 428.495C164.442 428.309 165.544 427.341 167.268 427.231C168.99 427.108 170.214 427.917 170.089 428.122Z" fill="#0D151D"/>
<path d="M153.849 298.122C153.849 298.122 168.324 296.966 169.935 312.65C171.545 328.333 173.127 401.521 173.127 401.521L139.3 404.335L134.065 329.54L80.1035 306.62C80.1035 306.62 144.183 296.112 153.849 298.122Z" fill="#0D151D"/>
<path d="M94.1838 276.959C94.1838 276.959 102.968 301.554 101.296 304.295C99.6223 307.037 77.0315 318.316 77.0315 318.316L20.5027 339.996C20.5027 339.996 14.6965 330.773 14.6965 316.607C14.6965 302.442 34.3592 276.959 34.3592 276.959H94.1838Z" fill="#0D151D"/>
<path d="M77.4282 305.364C77.4249 305.373 77.514 305.421 77.6934 305.507C77.8995 305.602 78.1647 305.724 78.4956 305.877C79.241 306.209 80.2873 306.674 81.6266 307.268C84.4021 308.475 88.3877 310.21 93.3771 312.38C103.46 316.714 117.592 322.789 133.946 329.818L133.763 329.561C134.276 336.949 134.831 344.929 135.403 353.184C136.778 372.482 138.046 390.274 139.049 404.352L139.067 404.607L139.321 404.585C149.61 403.684 158.052 402.944 163.965 402.425C166.872 402.154 169.154 401.941 170.75 401.792C171.501 401.714 172.089 401.653 172.523 401.609C172.923 401.563 173.128 401.533 173.127 401.521C173.126 401.507 172.919 401.512 172.517 401.533C172.081 401.56 171.492 401.596 170.737 401.644C169.14 401.762 166.852 401.929 163.941 402.142C158.025 402.608 149.575 403.273 139.278 404.085L139.551 404.318C138.583 390.237 137.36 372.442 136.033 353.14C135.451 344.887 134.888 336.907 134.367 329.519L134.354 329.334L134.184 329.262C117.795 322.315 103.631 316.312 93.5275 312.029C88.508 309.928 84.499 308.249 81.7079 307.08C80.3519 306.524 79.2923 306.09 78.5368 305.78C78.197 305.647 77.9274 305.54 77.7145 305.458C77.5285 305.389 77.4315 305.355 77.4282 305.364Z" fill="#283C46"/>
<path d="M32.4717 307.824C32.4861 307.866 33.0499 307.709 34.0583 307.392C35.1803 307.03 36.6088 306.57 38.3146 306.022C41.9058 304.884 46.8885 303.299 52.5588 302.427C58.2291 301.554 63.4759 301.824 67.1406 302.614C70.822 303.375 72.9379 304.424 72.9847 304.305C73.0003 304.273 72.4877 303.985 71.5139 303.563C70.5412 303.137 69.0871 302.622 67.2364 302.18C63.5461 301.264 58.2045 300.918 52.4641 301.804C46.7259 302.686 41.7342 304.352 38.172 305.599C36.3893 306.231 34.9586 306.773 33.9759 307.16C32.9931 307.55 32.4572 307.784 32.4717 307.824Z" fill="#283C46"/>
<path d="M40.4607 294.86C40.4763 294.959 42.3537 294.594 45.4033 294.831C46.9254 294.938 48.7371 295.172 50.7538 295.404C52.7683 295.643 54.9789 295.915 57.2676 296.348C61.8604 297.164 65.8114 298.761 68.344 300.45C70.9 302.111 72.0967 303.626 72.1847 303.54C72.2092 303.52 71.9507 303.115 71.3635 302.478C70.7775 301.845 69.8694 300.967 68.5936 300.08C66.0755 298.259 62.0342 296.552 57.3845 295.728C55.067 295.29 52.8385 295.035 50.8173 294.827C48.7973 294.626 46.9744 294.437 45.4267 294.387C43.8813 294.332 42.6245 294.42 41.7688 294.55C40.9119 294.68 40.4529 294.822 40.4607 294.86Z" fill="#283C46"/>
<path d="M76.6951 107.197L50.7527 112.684C48.2435 112.851 46.2791 114.908 46.2312 117.42L46.5432 173.48C46.5644 177.309 47.849 181.025 50.1989 184.052L52.6725 187.238C58.3138 194.503 69.7401 193.77 74.0488 185.647C74.3496 185.08 74.558 184.582 74.646 184.181C74.7329 183.676 74.8677 183.343 74.8911 182.915L75.3847 177.449C75.6377 172.457 75.6722 167.386 75.6733 167.433C75.6733 167.433 86.2896 166.093 89.0094 152.434C90.3621 145.641 90.4546 134.421 90.2328 125.239C90.0323 116.975 84.9559 106.646 76.6951 107.197Z" fill="#FBA585"/>
<path d="M75.7435 163.991C75.7435 163.991 65.6609 164.193 56.7015 158.331C56.7015 158.331 59.1149 165.632 63.7901 168.29C66.5601 169.865 70.3796 171.03 75.5229 170.749L75.7435 163.991Z" fill="#FB7E53"/>
<path d="M115.116 207.031C115.116 207.031 105.004 190.193 102.198 186.789C99.5678 183.597 96.1772 181.714 93.9153 180.725C92.6563 180.175 91.3326 179.797 89.9788 179.562L75.4371 176.347C75.4371 176.347 75.4115 186.258 65.0125 186.871C54.6124 187.484 45.8557 173.018 45.8557 173.018C45.8557 173.018 29.0544 175.613 25.0343 177.678C21.0142 179.743 14.6977 182.365 11.2213 199.747L8.78119 216.753L37.7498 219.426L40.5219 262.412L54.8887 272.401C54.8887 272.401 94.7187 282.743 97.2636 283.426C99.8084 284.11 100.651 219.426 100.651 219.426C100.651 219.426 110.882 212.822 115.116 207.031Z" fill="#0D151D"/>
<path d="M96.049 199.801C96.0869 199.786 96.283 200.228 96.6084 201.04C96.9393 201.85 97.3616 203.045 97.8318 204.537C98.7755 207.52 99.8106 211.738 100.397 216.483C100.975 221.233 100.988 225.576 100.793 228.698C100.698 230.26 100.577 231.519 100.451 232.385C100.332 233.251 100.247 233.728 100.207 233.723C100.167 233.719 100.176 233.234 100.226 232.365C100.282 231.495 100.341 230.235 100.383 228.68C100.474 225.571 100.393 221.266 99.8207 216.554C99.239 211.845 98.2764 207.649 97.4385 204.653C97.0218 203.154 96.6607 201.945 96.3956 201.115C96.1371 200.283 96.0112 199.814 96.049 199.801Z" fill="#283C46"/>
<path d="M40.3403 258.355L37.7508 219.565L10.4302 217.188C10.4302 217.188 11.3282 243.801 12.2608 251.712C13.6024 263.092 22.076 278.292 27.0644 281.652C28.0226 282.298 32.6689 276.591 35.0856 270.463C37.6751 263.897 40.3403 258.355 40.3403 258.355Z" fill="#FBA585"/>
<path d="M76.7199 98.181C70.5086 95.9679 64.4437 97.4423 58.4059 100.099C52.368 102.757 47.3392 107.485 43.9206 113.123C40.321 119.062 38.4503 126.129 39.1899 133.029C39.9294 139.93 43.3893 146.599 48.9414 150.768C56.5235 156.459 67.4363 156.857 75.8841 152.537C84.331 148.217 90.2387 139.657 92.2461 130.392C93.6295 124.009 93.2545 117.164 90.6046 111.197C87.9537 105.23 82.9233 100.234 76.7199 98.181Z" fill="#0D151D"/>
<path d="M54.656 116.746C56.0258 114.462 56.1472 111.665 56.9758 109.135C58.8025 103.565 64.2194 99.7921 69.9418 98.5013C75.266 97.2998 81.2406 98.817 86.8706 101.796C90.7299 103.838 94.174 106.821 96.3158 110.623C99.1573 115.67 99.3327 122.123 96.7677 127.321L68.2642 117.921C65.1245 119.703 61.9131 121.513 58.3668 122.192C57.326 122.391 56.2292 122.484 55.228 122.139C54.2267 121.795 53.3488 120.92 53.2833 119.864C53.2125 118.709 54.0609 117.737 54.656 116.746Z" fill="#0D151D"/>
<path d="M86.0748 109.972L59.5817 110.888C57.0826 110.618 54.7905 112.304 54.3059 114.77L48.0173 152.099C51.2787 156.717 60.24 162.862 64.7839 165.683C68.7001 168.114 74.5783 169.106 74.5752 169.131C74.5752 169.131 85.259 169.648 90.316 156.664C92.8308 150.207 94.8765 139.171 96.2579 130.087C97.5002 121.911 94.3025 110.859 86.0748 109.972Z" fill="#FBA585"/>
<path d="M90.5478 139.775C90.382 140.693 89.4675 141.31 88.5052 141.155C87.545 141.001 86.899 140.133 87.0637 139.215C87.2293 138.298 88.1439 137.68 89.1041 137.834C90.0664 137.988 90.7134 138.858 90.5478 139.775Z" fill="#0D151D"/>
<path d="M92.6451 135.284C92.3827 135.463 91.2846 134.212 89.426 133.815C87.5752 133.393 86.0047 134.054 85.8523 133.783C85.7755 133.661 86.081 133.302 86.7683 132.997C87.4465 132.694 88.5332 132.491 89.6895 132.747C90.8458 133.002 91.7254 133.639 92.1904 134.195C92.6658 134.757 92.7732 135.206 92.6451 135.284Z" fill="#0D151D"/>
<path d="M73.8541 136.403C73.6894 137.321 72.775 137.938 71.8127 137.783C70.8527 137.628 70.2063 136.762 70.3721 135.844C70.5366 134.927 71.4512 134.309 72.4114 134.463C73.3737 134.617 74.0199 135.485 73.8541 136.403Z" fill="#0D151D"/>
<path d="M74.9622 131.703C74.6989 131.88 73.5996 130.631 71.742 130.234C69.8913 129.811 68.3218 130.472 68.1695 130.201C68.0927 130.079 68.396 129.72 69.0855 129.416C69.7636 129.113 70.8503 128.91 72.0068 129.165C73.1629 129.421 74.0437 130.058 74.5086 130.614C74.9831 131.175 75.0892 131.624 74.9622 131.703Z" fill="#0D151D"/>
<path d="M78.0673 146.897C78.0817 146.79 79.278 146.84 81.2002 147.005C81.6848 147.059 82.1534 147.062 82.3036 146.756C82.4899 146.437 82.4012 145.884 82.2914 145.284C82.0952 144.04 81.8901 142.739 81.6737 141.373C80.8427 135.817 80.3511 131.289 80.575 131.257C80.7988 131.225 81.6553 135.704 82.4861 141.261C82.6796 142.628 82.8652 143.932 83.0402 145.179C83.1032 145.757 83.2797 146.434 82.883 147.092C82.6782 147.419 82.2741 147.601 81.9525 147.616C81.6287 147.644 81.3611 147.591 81.1235 147.554C79.2204 147.249 78.0518 147.004 78.0673 146.897Z" fill="#0D151D"/>
<path d="M76.3117 151.197C75.8362 150.169 74.7702 149.43 73.5809 149.305C72.7561 149.216 71.8588 149.429 71.2265 149.98C70.5941 150.53 70.2883 151.44 70.5985 152.161C70.9467 152.974 71.9583 153.362 72.8987 153.303C73.8403 153.242 74.73 152.823 75.581 152.399C75.8157 152.28 76.0577 152.159 76.2301 151.964C76.4033 151.772 76.4918 151.489 76.3772 151.274" fill="#FB7E53"/>
<path d="M72.3234 146.995C72.6293 147.043 72.1948 149.059 73.61 150.861C75.0197 152.668 77.2192 152.907 77.1734 153.191C77.1738 153.323 76.61 153.48 75.6982 153.308C74.8014 153.147 73.5647 152.581 72.6989 151.478C71.8367 150.374 71.6379 149.106 71.7484 148.264C71.8538 147.405 72.1881 146.954 72.3234 146.995Z" fill="#0D151D"/>
<path d="M75.8373 126.139C75.5446 126.604 73.7415 125.964 71.5056 125.755C69.2729 125.502 67.3778 125.759 67.1872 125.244C67.1059 125 67.5154 124.591 68.3314 124.256C69.142 123.92 70.3654 123.7 71.7055 123.837C73.0451 123.977 74.1981 124.443 74.9218 124.938C75.6522 125.433 75.9683 125.917 75.8373 126.139Z" fill="#0D151D"/>
<path d="M93.8649 127.056C93.4466 127.407 92.2629 126.692 90.7279 126.34C89.2069 125.933 87.8249 126.008 87.6201 125.503C87.5351 125.26 87.8317 124.882 88.4879 124.606C89.1352 124.33 90.1455 124.208 91.1956 124.468C92.2456 124.73 93.0785 125.31 93.5203 125.857C93.9705 126.408 94.0541 126.882 93.8649 127.056Z" fill="#0D151D"/>
<path d="M50.6738 111.976C54.696 104.671 68.1287 96.1151 76.1805 98.2877L87.6744 108.662C86.0085 112.946 81.8146 116.139 77.2388 116.604C74.7949 116.853 71.9811 116.501 70.2193 118.213C68.4207 119.96 68.6563 123.066 66.9415 124.896C64.5644 127.434 59.656 126.327 57.6841 129.189C56.8229 130.438 56.8086 132.131 55.925 133.367C54.7473 135.012 49.7194 136.403 47.9447 135.432C46.1713 134.461 46.802 131.24 46.5157 129.431C46.0274 126.34 46.7585 124.931 47.4248 123.389C49.0027 119.737 48.7546 115.461 50.6738 111.976Z" fill="#0D151D"/>
<path d="M53.2179 138.111C53.4324 137.109 52.787 134.498 51.8309 134.13C49.2782 133.146 44.4694 132.329 42.9684 139.026C40.9176 148.18 50.5364 148.343 50.6116 148.084C50.6711 147.882 52.4751 141.569 53.2179 138.111Z" fill="#FBA585"/>
<path d="M48.5902 143.991C48.5562 143.953 48.406 144.067 48.1097 144.131C47.8196 144.192 47.348 144.174 46.911 143.889C46.0226 143.318 45.5527 141.601 45.8778 139.942C46.0409 139.103 46.3936 138.349 46.8363 137.758C47.2659 137.151 47.803 136.78 48.3102 136.802C48.8198 136.798 49.0996 137.166 49.1536 137.449C49.2198 137.733 49.1198 137.902 49.165 137.928C49.1847 137.957 49.3958 137.818 49.4068 137.424C49.41 137.233 49.3506 136.993 49.1754 136.769C48.9951 136.542 48.6926 136.379 48.3445 136.34C47.6275 136.232 46.8466 136.741 46.36 137.388C45.8346 138.032 45.4188 138.874 45.2353 139.816C44.8808 141.673 45.4382 143.611 46.6764 144.288C47.2829 144.599 47.8647 144.525 48.1905 144.371C48.5246 144.209 48.6187 144.015 48.5902 143.991Z" fill="#FB7E53"/>
<path d="M49.1096 109.224C49.6497 106.342 46.3749 103.821 43.6761 102.671C40.9782 101.524 37.8515 101.854 35.0712 102.796C33.4449 103.347 31.7477 104.239 31.1236 105.837C30.4984 107.435 31.7452 109.689 33.4328 109.375C30.2166 109.878 27.963 113.656 29.0495 116.72C30.1361 119.785 34.2655 121.299 37.08 119.664C35.8214 122.17 33.6784 124.222 31.1194 125.371C35.7512 126.884 41.1544 125.742 44.7801 122.487C48.4061 119.232 50.1185 113.987 49.1096 109.224Z" fill="#0D151D"/>
<path d="M40.1058 122.777C40.0382 122.775 39.9767 121.684 40.2502 119.946C40.5183 118.212 41.2019 115.842 42.4911 113.474C43.7877 111.109 45.4141 109.252 46.7278 108.088C48.0428 106.917 48.9936 106.381 49.0313 106.436C49.1802 106.585 45.5415 109.107 43.0356 113.771C40.465 118.398 40.3129 122.82 40.1058 122.777Z" fill="#4A6CD1"/>
<path d="M85.4952 105.41C85.6808 109.317 90.5439 115.139 92.5348 118.505C96.334 124.927 96.9495 126.946 94.696 139.414C97.7184 135.502 100.195 131.585 100.881 126.693C101.567 121.801 100.637 116.615 97.873 112.522C95.1094 108.429 90.4364 105.56 85.4952 105.41Z" fill="#0D151D"/>
<path d="M123.134 287.358C122.672 288.073 121.826 288.48 120.988 288.317C120.823 288.284 120.65 288.234 120.475 288.156C119.317 287.644 119.692 285.215 119.692 285.215L114.045 283.665C114.045 283.665 106.056 287.681 103.054 290.589C100.053 293.497 93.5479 290.188 93.5479 290.188L86.8649 280.541L104.116 269.272C104.116 269.272 103.404 269.772 104.326 268.063C105.247 266.352 108.499 267.383 108.499 267.383C109.111 266.554 111.316 266.469 111.316 266.469L120.48 268.528C122.368 268.952 123.962 270.208 124.815 271.942L128.072 278.566C128.072 278.566 129.663 283.255 129.219 284.258C128.547 285.772 126.926 285.245 126.926 285.245C126.926 285.245 126.154 288.134 125.371 288.153C124.588 288.174 123.134 287.358 123.134 287.358Z" fill="#FBA585"/>
<path d="M104.332 276.463C104.331 276.56 105.578 276.577 107.55 276.873C109.516 277.182 112.216 277.821 114.971 279.099C116.348 279.732 117.604 280.452 118.696 281.182C119.749 281.933 120.863 282.575 121.134 283.43C121.272 283.849 121.147 284.247 120.914 284.525C120.686 284.802 120.397 284.971 120.151 285.043C119.642 285.191 119.341 285.019 119.324 285.073C119.3 285.084 119.584 285.36 120.202 285.266C120.5 285.219 120.857 285.062 121.164 284.746C121.475 284.446 121.697 283.876 121.538 283.317C121.396 282.754 120.98 282.288 120.524 281.89C120.055 281.506 119.563 281.111 119.005 280.731C117.907 279.959 116.629 279.207 115.219 278.559C112.4 277.251 109.616 276.663 107.604 276.458C105.582 276.264 104.329 276.396 104.332 276.463Z" fill="#FB7E53"/>
<path d="M103.048 282.301C103.041 282.478 106.833 282.723 111.443 283.49C116.057 284.242 119.728 285.224 119.778 285.054C119.799 284.978 118.907 284.638 117.424 284.211C115.942 283.783 113.865 283.288 111.539 282.904C109.216 282.523 107.09 282.325 105.549 282.254C104.007 282.184 103.052 282.223 103.048 282.301Z" fill="#FB7E53"/>
<path d="M123.105 287.119C123.137 287.116 123.216 286.779 123.329 286.144C123.436 285.509 123.575 284.588 123.626 283.429C123.649 282.852 123.655 282.214 123.569 281.523C123.496 280.83 123.249 280.082 122.876 279.406C122.175 278.052 121.154 276.619 119.781 275.478C118.412 274.35 117.027 273.374 115.585 272.764C114.153 272.158 112.781 271.901 111.642 271.728C110.499 271.564 109.573 271.491 108.932 271.448C108.291 271.405 107.936 271.402 107.93 271.441C107.917 271.536 109.329 271.735 111.571 272.141C112.685 272.365 114.012 272.66 115.366 273.267C116.71 273.861 118.071 274.838 119.393 275.93C120.717 277.035 121.674 278.35 122.393 279.666C123.164 280.931 123.187 282.29 123.206 283.423C123.187 285.689 122.978 287.109 123.105 287.119Z" fill="#FB7E53"/>
<path d="M111.513 268.877C111.504 268.965 112.888 269.149 115.077 269.641C117.176 270.196 120.575 270.716 122.204 273.864C124.025 276.762 125.545 279.48 126.107 281.634C126.717 283.78 126.49 285.195 126.613 285.197C126.644 285.201 126.734 284.858 126.771 284.221C126.813 283.584 126.776 282.648 126.514 281.531C126.036 279.268 124.538 276.459 122.707 273.544C122.239 272.811 121.723 272.108 121.099 271.531C120.479 270.943 119.725 270.559 119.026 270.273C117.607 269.704 116.276 269.44 115.161 269.229C112.925 268.838 111.52 268.802 111.513 268.877Z" fill="#FB7E53"/>
<path d="M105.296 288.832C105.307 288.846 105.511 288.722 105.892 288.47C106.324 288.194 106.883 287.836 107.58 287.39C109.064 286.477 111.262 285.188 114.129 283.844L113.995 283.855C115.677 284.33 117.574 284.865 119.63 285.444L119.46 285.181C119.396 285.648 119.374 286.109 119.415 286.595C119.462 287.073 119.556 287.593 119.918 288.046C120.109 288.268 120.397 288.417 120.643 288.476C120.892 288.569 121.167 288.624 121.447 288.61C122.002 288.59 122.549 288.356 122.96 287.972C123.066 287.878 123.158 287.77 123.246 287.659L123.309 287.573L123.34 287.53L123.354 287.507L123.357 287.506C123.434 287.485 122.69 287.669 123.006 287.592L123.012 287.595L123.024 287.602L123.198 287.694C123.43 287.816 123.667 287.93 123.912 288.036C124.157 288.142 124.408 288.24 124.677 288.318C124.813 288.356 124.95 288.389 125.1 288.409C125.238 288.429 125.406 288.451 125.642 288.362C125.991 288.166 126.136 287.906 126.287 287.663C126.43 287.414 126.551 287.162 126.656 286.905C126.873 286.389 127.044 285.868 127.201 285.32L126.84 285.516C127.57 285.726 128.468 285.64 129.059 285.015C129.325 284.723 129.558 284.352 129.578 283.902C129.602 283.498 129.55 283.135 129.494 282.769C129.243 281.318 128.82 279.907 128.353 278.473L128.348 278.455L128.338 278.436C127.785 277.309 127.197 276.114 126.602 274.903C126.233 274.15 125.865 273.405 125.501 272.664C125.132 271.944 124.818 271.147 124.263 270.477C123.732 269.811 123.067 269.263 122.329 268.872C121.6 268.46 120.758 268.287 120.016 268.128C116.979 267.455 114.084 266.812 111.376 266.212L111.339 266.205L111.307 266.207C110.76 266.241 110.244 266.312 109.73 266.446C109.228 266.588 108.695 266.752 108.297 267.235L108.63 267.168C107.691 266.662 106.554 266.536 105.633 267.016C104.707 267.493 104.21 268.369 103.906 269.207L103.989 269.093C100.658 271.498 97.9397 273.46 95.995 274.865C95.0966 275.53 88.733 278.904 88.1913 279.305C87.702 279.678 87.4493 279.881 87.462 279.898C87.4747 279.916 87.7517 279.747 88.2652 279.41C88.8245 279.033 95.2105 275.69 96.137 275.066C98.1088 273.701 100.866 271.791 104.244 269.453L104.298 269.416L104.326 269.34C104.603 268.601 105.085 267.804 105.846 267.44C106.59 267.047 107.584 267.167 108.37 267.599L108.564 267.705L108.702 267.533C108.935 267.246 109.399 267.06 109.859 266.945C110.324 266.827 110.832 266.761 111.328 266.734L111.26 266.728C113.964 267.342 116.856 268.001 119.889 268.691C120.663 268.861 121.387 269.011 122.054 269.388C122.721 269.745 123.322 270.241 123.802 270.844C124.292 271.43 124.588 272.179 124.967 272.925C125.331 273.666 125.699 274.414 126.068 275.165C126.664 276.375 127.252 277.571 127.807 278.698L127.793 278.663C128.253 280.066 128.676 281.482 128.919 282.862C128.974 283.205 129.019 283.556 129.001 283.861C129.004 284.128 128.839 284.398 128.643 284.618C128.259 285.054 127.569 285.13 127.014 284.978L126.73 284.9L126.654 285.174C126.51 285.69 126.342 286.207 126.142 286.691C125.953 287.15 125.683 287.703 125.409 287.867C125.395 287.873 125.293 287.893 125.172 287.868C125.06 287.856 124.941 287.826 124.825 287.795C124.589 287.729 124.354 287.639 124.124 287.542C123.892 287.445 123.665 287.338 123.443 287.223L123.28 287.138L123.27 287.131L123.266 287.129C123.58 287.051 122.835 287.234 122.912 287.217L122.909 287.219L122.898 287.236L122.874 287.271L122.825 287.341L122.602 287.587C122.279 287.895 121.852 288.078 121.427 288.096C121.212 288.11 121.005 288.068 120.799 287.992C120.573 287.937 120.427 287.855 120.298 287.717C119.812 287.089 119.842 286.063 119.926 285.253L119.948 285.041L119.756 284.989C117.692 284.437 115.788 283.929 114.099 283.478L114.026 283.458L113.965 283.488C111.091 284.892 108.922 286.238 107.464 287.209C106.738 287.701 106.189 288.1 105.827 288.382C105.467 288.664 105.286 288.817 105.296 288.832Z" fill="#FB7E53"/>
<path d="M39.2614 259.322C38.1202 258.852 32.5448 257.289 26.1252 263.052C19.8206 268.713 22.9994 280.075 24.0531 281.375C25.1068 282.676 38.9675 284.686 38.9675 284.686L93.4995 290.434L92.3265 276.984C92.3265 276.984 40.4027 259.792 39.2614 259.322Z" fill="#FCA586"/>
<path d="M157.041 272.846L141.686 251.351C141.686 251.351 134.632 241.52 127.269 241.72C120.389 241.908 117.379 247.746 117.608 249.75C117.723 250.752 118.091 253.965 119.265 255.652C119.828 256.459 154.903 284.15 154.903 284.15L157.041 272.846Z" fill="#FCA586"/>
<path d="M194.409 294.63C194.865 294.167 195.047 293.498 194.886 292.869L192.148 282.19C191.892 281.255 191.249 280.473 190.381 280.039L153.134 261.45L152.363 263.293L154.116 275.249L194.026 295.019L194.409 294.63Z" fill="#0D151D"/>
<path d="M189.028 287.455C188.852 287.71 188.984 288.107 189.324 288.343C189.663 288.577 190.082 288.562 190.258 288.308C190.435 288.052 190.302 287.656 189.963 287.421C189.623 287.185 189.204 287.201 189.028 287.455Z" fill="#FEFEFE"/>
<path d="M194.025 295.018C193.981 295.029 193.749 294.299 193.368 292.969C192.973 291.528 192.451 289.623 191.819 287.319C191.498 286.113 191.151 284.806 190.779 283.41C190.639 282.734 190.217 282.168 189.599 281.846C188.904 281.503 188.19 281.15 187.458 280.788C184.516 279.325 181.298 277.724 177.921 276.044C171.16 272.661 165.057 269.567 160.655 267.298C158.535 266.19 156.783 265.272 155.457 264.578C154.236 263.923 153.572 263.543 153.592 263.502C153.612 263.462 154.316 263.765 155.573 264.349C156.922 264.995 158.707 265.849 160.864 266.881C165.32 269.045 171.456 272.074 178.216 275.457C181.585 277.153 184.795 278.772 187.729 280.249C188.46 280.619 189.174 280.981 189.868 281.334C190.634 281.729 191.165 282.513 191.305 283.263C191.649 284.668 191.971 285.983 192.268 287.196C192.818 289.524 193.272 291.449 193.616 292.905C193.92 294.256 194.069 295.008 194.025 295.018Z" fill="#283C46"/>
<path d="M180.253 284.397C180.253 284.397 180.316 283.411 177.607 283.183C174.897 282.955 167.106 282.112 167.106 282.112L169.22 276.738L167.667 270.491C167.667 270.491 166.23 269.253 165.652 270.347C165.074 271.44 164.816 275.529 164.816 275.529L160.901 278.969L164.022 270.021C164.022 270.021 162.96 267.275 161.326 268.3C159.692 269.326 154.938 275.661 154.938 275.661L154.773 271.375L157.266 265.972C157.266 265.972 157.017 264.429 155.762 265.159C154.507 265.887 150.333 271.685 150.333 271.685L147.967 278.411C147.967 278.411 148.639 281.858 149.7 282.075C150.762 282.293 152.229 282.212 152.229 282.212C152.229 282.212 152.939 284.002 153.875 284.245C154.811 284.488 156.205 284.104 156.205 284.104C156.205 284.104 156.028 287.063 157.686 287.238C159.344 287.413 162.495 286.748 163.707 286.314C164.917 285.88 176.655 286.092 176.991 285.934C177.327 285.776 181.226 286.128 180.253 284.397Z" fill="#FBA585"/>
<path d="M149.71 282.302C149.637 282.332 149.297 281.747 149.003 280.699C148.709 279.656 148.517 278.136 148.713 276.478C148.915 274.821 149.463 273.39 149.996 272.447C150.529 271.498 150.999 271.011 151.063 271.058C151.241 271.159 149.722 273.376 149.366 276.557C148.958 279.729 149.907 282.245 149.71 282.302Z" fill="#FB7E53"/>
<path d="M151.826 280.532C151.666 280.449 152.129 279.252 152.982 277.934C153.832 276.614 154.733 275.702 154.874 275.811C155.019 275.925 154.367 276.998 153.535 278.291C152.699 279.581 151.988 280.619 151.826 280.532Z" fill="#FB7E53"/>
<path d="M157.712 283.256C157.554 283.176 158.003 281.988 158.922 280.738C159.836 279.486 160.833 278.7 160.957 278.827C161.089 278.959 160.334 279.92 159.453 281.127C158.567 282.33 157.877 283.342 157.712 283.256Z" fill="#FB7E53"/>
<path d="M162.55 286.275C162.456 286.11 163.58 285.333 164.768 284.175C165.966 283.026 166.779 281.929 166.942 282.028C167.095 282.11 166.494 283.428 165.226 284.647C163.965 285.874 162.627 286.43 162.55 286.275Z" fill="#FB7E53"/>
<path d="M197.099 240.367L125.255 240.95C122.925 240.95 120.698 242.067 120.349 244.368L112.497 296.656H75.4917C74.3006 296.656 73.3346 297.619 73.3346 298.809C73.3346 299.999 74.3006 300.964 75.4917 300.964H111.851H118.752H193.683L201.76 245.778C202.192 242.931 199.983 240.367 197.099 240.367Z" fill="#D9D9D1"/>
<path d="M197.099 240.367C197.099 240.367 197.49 240.318 198.231 240.473C198.951 240.64 200.083 241.084 200.975 242.291C201.421 242.881 201.758 243.669 201.863 244.579C201.98 245.504 201.715 246.477 201.599 247.531C201.298 249.644 200.952 252.077 200.563 254.812C198.982 265.774 196.702 281.572 193.901 300.995L193.874 301.186H193.681C163.098 301.204 122.908 301.228 79.0204 301.254C77.9898 301.254 76.9602 301.254 75.9341 301.254C75.4583 301.274 74.7953 301.247 74.3017 300.943C73.7914 300.662 73.3947 300.193 73.1964 299.648C72.7663 298.554 73.28 297.214 74.3117 296.671C74.8042 296.373 75.4605 296.349 75.9307 296.367H77.4505C81.4985 296.368 85.5052 296.368 89.4596 296.368C97.3694 296.371 105.073 296.373 112.497 296.375L112.221 296.615C115.046 277.889 117.684 260.42 120.048 244.749C120.131 243.757 120.58 242.683 121.377 242.017C122.157 241.326 123.145 240.961 124.125 240.808C125.125 240.656 126.075 240.737 127.021 240.705C127.969 240.698 128.91 240.693 129.842 240.686C133.573 240.66 137.182 240.636 140.659 240.612C147.612 240.569 154.042 240.528 159.88 240.491C171.545 240.431 180.844 240.384 187.246 240.351C190.428 240.345 192.885 240.341 194.566 240.338C195.388 240.342 196.016 240.345 196.457 240.348C196.881 240.351 197.099 240.367 197.099 240.367C197.099 240.367 196.883 240.384 196.457 240.397C196.017 240.406 195.388 240.42 194.567 240.437C192.886 240.461 190.428 240.496 187.247 240.541C180.844 240.612 171.546 240.716 159.883 240.845C154.043 240.903 147.613 240.966 140.66 241.035C137.183 241.069 133.575 241.104 129.844 241.139C128.912 241.149 127.971 241.157 127.023 241.164C126.078 241.197 125.106 241.124 124.198 241.268C123.285 241.411 122.38 241.757 121.693 242.372C120.986 242.986 120.613 243.841 120.524 244.821C118.182 260.495 115.572 277.966 112.775 296.697L112.739 296.935H112.497C105.073 296.937 97.3694 296.94 89.4596 296.943C85.5052 296.943 81.4985 296.944 77.4505 296.945H75.9307C75.3948 296.93 74.9937 296.951 74.5914 297.177C73.8048 297.593 73.4126 298.615 73.7413 299.45C73.8917 299.864 74.1948 300.225 74.5847 300.438C74.9892 300.667 75.3914 300.689 75.9341 300.674C76.9602 300.674 77.9898 300.674 79.0204 300.674C122.908 300.7 163.098 300.724 193.681 300.742L193.462 300.932C196.345 281.52 198.69 265.732 200.317 254.775C200.728 252.043 201.093 249.613 201.411 247.502C201.538 246.446 201.808 245.476 201.704 244.596C201.612 243.716 201.296 242.947 200.87 242.366C200.019 241.18 198.919 240.721 198.215 240.536C197.49 240.362 197.096 240.394 197.099 240.367Z" fill="#0D151D"/>
<path d="M153.632 270C153.632 272.48 155.645 274.492 158.13 274.492C160.614 274.492 162.628 272.48 162.628 270C162.628 267.519 160.614 265.509 158.13 265.509C155.645 265.509 153.632 267.519 153.632 270Z" fill="#FEFEFE"/>
<path d="M115.409 300.48C115.51 300.498 117.798 287.183 120.516 270.746C123.235 254.304 125.358 240.965 125.255 240.949C125.154 240.931 122.867 254.244 120.147 270.686C117.43 287.123 115.307 300.464 115.409 300.48Z" fill="#0D151D"/>
<path d="M235.224 151.887L236.561 151.911L236.653 146.626L235.227 146.602L235.162 150.351C234.978 150.67 234.641 150.831 234.162 150.823C233.66 150.814 233.42 150.543 233.43 149.987L233.489 146.571L232.075 146.547L232.014 150.007C232.003 150.641 232.15 151.122 232.446 151.45C232.741 151.777 233.161 151.952 233.729 151.962C234.353 151.972 234.836 151.769 235.2 151.353L235.224 151.887Z" fill="black" stroke="black" stroke-width="0.01" stroke-linejoin="round"/>
<path d="M240.307 150.919C240.161 151.016 239.959 151.069 239.681 151.064C239.391 151.059 239.169 150.988 238.993 150.852C238.829 150.715 238.732 150.513 238.725 150.268L237.388 150.245C237.383 150.568 237.467 150.858 237.662 151.14C237.858 151.422 238.122 151.638 238.464 151.799C238.807 151.972 239.195 152.057 239.641 152.065C240.298 152.076 240.836 151.93 241.253 151.648C241.67 151.354 241.889 150.969 241.897 150.479C241.909 149.812 241.539 149.327 240.797 149.036C240.553 148.954 240.265 148.859 239.91 148.787C239.566 148.714 239.311 148.62 239.168 148.529C239.014 148.426 238.949 148.302 238.952 148.147C238.955 147.98 239.024 147.836 239.148 147.738C239.284 147.629 239.474 147.577 239.708 147.581C239.987 147.586 240.186 147.656 240.317 147.792C240.449 147.928 240.502 148.096 240.498 148.296L241.913 148.321C241.922 147.82 241.728 147.405 241.333 147.075C240.937 146.757 240.405 146.592 239.726 146.58C239.102 146.569 238.587 146.716 238.191 147.021C237.796 147.325 237.6 147.723 237.591 148.19C237.577 148.991 238.192 149.536 239.446 149.824C239.823 149.909 240.1 150.003 240.266 150.106C240.442 150.209 240.518 150.344 240.515 150.522C240.512 150.689 240.443 150.821 240.307 150.919Z" fill="black" stroke="black" stroke-width="0.01" stroke-linejoin="round"/>
<path d="M246.427 151.927C246.787 151.766 247.081 151.538 247.297 151.241L246.62 150.45C246.301 150.845 245.875 151.027 245.329 151.018C244.972 151.011 244.685 150.906 244.465 150.691C244.235 150.487 244.095 150.206 244.057 149.86L247.432 149.919L247.442 149.341C247.457 148.495 247.268 147.846 246.852 147.383C246.448 146.92 245.884 146.687 245.16 146.675C244.67 146.666 244.244 146.77 243.862 146.986C243.479 147.213 243.184 147.53 242.965 147.938C242.757 148.358 242.648 148.834 242.639 149.357L242.636 149.502C242.623 150.292 242.857 150.93 243.327 151.417C243.809 151.892 244.44 152.148 245.22 152.162C245.654 152.169 246.057 152.087 246.427 151.927ZM245.826 148.077C245.979 148.258 246.064 148.504 246.058 148.816L246.056 148.927L244.096 148.893C244.147 148.538 244.263 148.273 244.444 148.087C244.615 147.9 244.85 147.804 245.129 147.809C245.43 147.814 245.662 147.907 245.826 148.077Z" fill="black" stroke="black" stroke-width="0.01" stroke-linejoin="round"/>
<path d="M251.291 146.837C251.147 146.801 251.002 146.776 250.846 146.774C250.345 146.765 249.951 147.003 249.653 147.476L249.63 146.853L248.294 146.829L248.201 152.114L249.616 152.138L249.677 148.679C249.85 148.314 250.198 148.142 250.733 148.152C250.878 148.154 251.056 148.168 251.245 148.205L251.291 146.837Z" fill="black" stroke="black" stroke-width="0.01" stroke-linejoin="round"/>
<path d="M251.917 146.893L251.824 152.177L253.239 152.201L253.304 148.475C253.511 148.133 253.815 147.972 254.216 147.979C254.516 147.984 254.727 148.054 254.858 148.19C254.99 148.326 255.053 148.55 255.047 148.85L254.988 152.232L256.403 152.257L256.463 148.841C256.463 148.185 256.327 147.693 256.065 147.354C255.792 147.027 255.383 146.853 254.815 146.843C254.18 146.832 253.675 147.057 253.288 147.517L253.254 146.916L251.917 146.893Z" fill="black" stroke="black" stroke-width="0.01" stroke-linejoin="round"/>
<path d="M261.974 152.354L261.976 152.276C261.835 152.006 261.775 151.627 261.784 151.126L261.824 148.835C261.834 148.245 261.653 147.774 261.269 147.445C260.896 147.105 260.375 146.94 259.729 146.929C259.295 146.921 258.904 146.981 258.555 147.131C258.208 147.269 257.937 147.465 257.743 147.729C257.549 147.981 257.443 148.269 257.438 148.569L258.853 148.594C258.857 148.393 258.937 148.239 259.073 148.13C259.208 148.021 259.399 147.969 259.633 147.973C259.9 147.978 260.099 148.048 260.219 148.206C260.35 148.353 260.403 148.543 260.399 148.788L260.393 149.099L259.747 149.088C258.956 149.074 258.352 149.208 257.934 149.501C257.517 149.795 257.298 150.225 257.288 150.781C257.28 151.237 257.441 151.618 257.781 151.925C258.11 152.231 258.541 152.394 259.065 152.403C259.611 152.413 260.06 152.231 260.412 151.848C260.431 152.037 260.472 152.205 260.537 152.329L261.974 152.354ZM258.886 151.143C258.755 151.029 258.701 150.883 258.705 150.705L258.706 150.628C258.759 150.139 259.142 149.901 259.855 149.913L260.379 149.922L260.363 150.834C260.282 150.989 260.146 151.109 259.966 151.195C259.787 151.281 259.596 151.333 259.385 151.329C259.173 151.326 259.007 151.267 258.886 151.143Z" fill="black" stroke="black" stroke-width="0.01" stroke-linejoin="round"/>
<path d="M262.941 147.085L262.849 152.369L264.264 152.394L264.329 148.656C264.513 148.325 264.806 148.163 265.207 148.17C265.496 148.175 265.707 148.246 265.816 148.381C265.936 148.528 265.999 148.752 265.994 149.052L265.935 152.423L267.349 152.447L267.402 148.809C267.576 148.412 267.869 148.217 268.293 148.224C268.593 148.229 268.804 148.3 268.913 148.446C269.033 148.582 269.085 148.805 269.079 149.106L269.02 152.476L270.435 152.501L270.494 149.119C270.506 148.452 270.381 147.949 270.109 147.61C269.825 147.271 269.404 147.097 268.825 147.087C268.146 147.075 267.606 147.333 267.229 147.86C266.982 147.322 266.519 147.047 265.828 147.035C265.193 147.024 264.688 147.238 264.301 147.698L264.267 147.108L262.941 147.085Z" fill="black" stroke="black" stroke-width="0.01" stroke-linejoin="round"/>
<path d="M275.174 152.428C275.534 152.267 275.827 152.039 276.044 151.742L275.367 150.951C275.048 151.346 274.622 151.528 274.076 151.519C273.719 151.512 273.431 151.407 273.212 151.192C272.982 150.988 272.842 150.707 272.803 150.361L276.179 150.42L276.189 149.842C276.204 148.996 276.015 148.347 275.599 147.884C275.195 147.421 274.631 147.188 273.907 147.176C273.416 147.167 272.991 147.271 272.609 147.487C272.226 147.714 271.93 148.032 271.712 148.44C271.504 148.859 271.395 149.335 271.386 149.858L271.383 150.003C271.369 150.793 271.603 151.431 272.074 151.918C272.556 152.394 273.187 152.649 273.967 152.663C274.401 152.67 274.804 152.588 275.174 152.428ZM274.573 148.578C274.726 148.759 274.811 149.005 274.805 149.317L274.803 149.428L272.843 149.394C272.893 149.039 273.009 148.774 273.191 148.588C273.361 148.401 273.597 148.305 273.876 148.31C274.176 148.315 274.409 148.409 274.573 148.578Z" fill="black" stroke="black" stroke-width="0.01" stroke-linejoin="round"/>
<path d="M284.665 147.853C284.386 147.202 283.95 146.683 283.365 146.328C282.781 145.962 282.071 145.782 281.258 145.768C280.456 145.754 279.728 145.931 279.075 146.309C278.422 146.687 277.911 147.234 277.531 147.94C277.14 148.645 276.925 149.454 276.865 150.354C276.815 151.288 276.924 152.091 277.213 152.775C277.502 153.459 277.949 153.979 278.545 154.334C279.152 154.69 279.884 154.88 280.741 154.895C281.087 154.901 281.422 154.863 281.757 154.791C282.104 154.719 282.373 154.623 282.576 154.493L282.4 153.733C282.186 153.83 281.929 153.914 281.627 153.965C281.325 154.015 281.046 154.044 280.779 154.039C279.743 154.021 278.979 153.696 278.478 153.053C277.966 152.41 277.758 151.516 277.823 150.371C277.881 149.604 278.049 148.939 278.337 148.355C278.637 147.77 279.035 147.321 279.531 147.007C280.027 146.704 280.598 146.547 281.222 146.558C282.235 146.575 282.988 146.9 283.489 147.521C283.991 148.141 284.21 149.013 284.134 150.158C284.102 150.725 283.982 151.179 283.776 151.521C283.569 151.873 283.31 152.036 283.009 152.03C282.82 152.027 282.676 151.958 282.589 151.823C282.503 151.688 282.473 151.487 282.511 151.232L282.816 148.41L282.508 148.194C282.178 147.976 281.79 147.858 281.322 147.85C280.943 147.844 280.584 147.949 280.258 148.166C279.931 148.382 279.646 148.7 279.427 149.119C279.208 149.538 279.066 150.014 278.99 150.547C278.923 151.202 279.003 151.738 279.263 152.143C279.512 152.548 279.876 152.755 280.355 152.763C280.879 152.772 281.306 152.546 281.649 152.096C281.745 152.331 281.898 152.501 282.096 152.626C282.306 152.753 282.539 152.812 282.828 152.817C283.463 152.828 283.969 152.592 284.356 152.109C284.744 151.627 284.956 150.963 285.015 150.129C285.063 149.273 284.943 148.514 284.665 147.853ZM280.507 149.171C280.724 148.864 281.017 148.702 281.396 148.708C281.529 148.711 281.652 148.735 281.785 148.782L281.532 151.092C281.439 151.358 281.313 151.556 281.165 151.687C281.018 151.829 280.872 151.893 280.705 151.89C280.46 151.886 280.284 151.771 280.176 151.547C280.069 151.323 280.041 150.999 280.082 150.566C280.159 149.955 280.301 149.491 280.507 149.171Z" fill="black" stroke="black" stroke-width="0.01" stroke-linejoin="round"/>
<path d="M285.756 150.142C285.742 150.965 285.931 151.625 286.312 152.133C286.704 152.629 287.212 152.894 287.847 152.905C288.382 152.914 288.809 152.732 289.149 152.371L289.144 152.66C289.138 153.027 289.021 153.304 288.806 153.5C288.602 153.697 288.3 153.792 287.932 153.785C287.431 153.777 287 153.58 286.661 153.174L286.011 154.03C286.196 154.267 286.471 154.472 286.836 154.634C287.212 154.797 287.59 154.881 287.968 154.888C288.481 154.897 288.939 154.816 289.321 154.644C289.703 154.473 290.008 154.211 290.226 153.881C290.432 153.54 290.551 153.141 290.559 152.674L290.648 147.568L289.367 147.545L289.303 148.034C288.987 147.639 288.534 147.431 287.954 147.421C287.297 147.409 286.769 147.645 286.37 148.139C285.983 148.622 285.771 149.274 285.757 150.086L285.756 150.142ZM287.481 148.97C287.687 148.696 287.957 148.567 288.291 148.573C288.714 148.58 289.023 148.752 289.207 149.078L289.168 151.303C288.973 151.622 288.658 151.773 288.224 151.765C287.889 151.759 287.636 151.621 287.44 151.351C287.255 151.07 287.162 150.69 287.17 150.211C287.18 149.666 287.287 149.245 287.481 148.97Z" fill="black" stroke="black" stroke-width="0.01" stroke-linejoin="round"/>
<path d="M291.737 147.587L291.645 152.871L293.06 152.896L293.125 149.158C293.309 148.827 293.602 148.665 294.003 148.672C294.292 148.677 294.503 148.748 294.612 148.883C294.732 149.03 294.795 149.254 294.79 149.554L294.731 152.925L296.145 152.949L296.198 149.311C296.372 148.914 296.665 148.719 297.089 148.726C297.389 148.731 297.6 148.802 297.709 148.948C297.829 149.084 297.881 149.307 297.875 149.608L297.816 152.978L299.231 153.003L299.29 149.621C299.302 148.954 299.177 148.451 298.905 148.112C298.621 147.773 298.2 147.599 297.621 147.589C296.941 147.577 296.402 147.835 296.025 148.362C295.778 147.824 295.315 147.549 294.624 147.537C293.989 147.526 293.484 147.74 293.097 148.2L293.063 147.61L291.737 147.587Z" fill="black" stroke="black" stroke-width="0.01" stroke-linejoin="round"/>
<path d="M304.825 153.101L304.827 153.023C304.686 152.753 304.626 152.374 304.635 151.873L304.675 149.581C304.685 148.992 304.504 148.521 304.12 148.192C303.747 147.852 303.226 147.687 302.58 147.675C302.146 147.668 301.755 147.728 301.406 147.878C301.059 148.016 300.788 148.212 300.594 148.475C300.4 148.728 300.294 149.016 300.289 149.316L301.704 149.341C301.708 149.14 301.788 148.986 301.924 148.877C302.059 148.768 302.25 148.716 302.484 148.72C302.751 148.724 302.951 148.795 303.07 148.953C303.201 149.1 303.254 149.29 303.25 149.534L303.244 149.846L302.598 149.835C301.807 149.821 301.203 149.955 300.785 150.248C300.368 150.541 300.149 150.972 300.139 151.528C300.131 151.984 300.292 152.365 300.632 152.671C300.961 152.978 301.392 153.141 301.916 153.15C302.462 153.16 302.911 152.978 303.263 152.595C303.282 152.784 303.323 152.952 303.388 153.076L304.825 153.101ZM301.737 151.889C301.606 151.776 301.552 151.63 301.556 151.452L301.557 151.374C301.61 150.886 301.993 150.648 302.706 150.66L303.23 150.669L303.214 151.581C303.133 151.736 302.997 151.856 302.817 151.942C302.638 152.028 302.447 152.08 302.236 152.076C302.024 152.072 301.858 152.014 301.737 151.889Z" fill="black" stroke="black" stroke-width="0.01" stroke-linejoin="round"/>
<path d="M307.285 147.858L305.859 147.833L305.767 153.117L307.192 153.142L307.285 147.858ZM306.008 146.99C306.15 147.126 306.349 147.196 306.583 147.2C306.817 147.204 307.019 147.141 307.166 147.01C307.313 146.879 307.383 146.702 307.387 146.48C307.391 146.268 307.327 146.1 307.185 145.953C307.042 145.817 306.854 145.747 306.609 145.743C306.364 145.739 306.173 145.802 306.026 145.933C305.879 146.075 305.809 146.241 305.805 146.452C305.801 146.675 305.865 146.854 306.008 146.99Z" fill="black" stroke="black" stroke-width="0.01" stroke-linejoin="round"/>
<path d="M309.982 145.679L308.556 145.654L308.425 153.163L309.85 153.188L309.982 145.679Z" fill="black" stroke="black" stroke-width="0.01" stroke-linejoin="round"/>
<path d="M311.319 153.058C311.462 153.205 311.65 153.275 311.884 153.279C312.118 153.283 312.308 153.22 312.467 153.078C312.614 152.947 312.695 152.77 312.699 152.548C312.703 152.314 312.628 152.135 312.486 151.988C312.332 151.852 312.144 151.77 311.91 151.766C311.676 151.762 311.486 151.837 311.338 151.968C311.18 152.11 311.099 152.286 311.095 152.52C311.091 152.742 311.166 152.922 311.319 153.058Z" fill="black" stroke="black" stroke-width="0.01" stroke-linejoin="round"/>
<path d="M315.39 151.883C315.227 151.646 315.156 151.255 315.165 150.71L315.168 150.555C315.178 150.021 315.273 149.633 315.445 149.391C315.616 149.16 315.863 149.042 316.197 149.048C316.465 149.053 316.675 149.145 316.839 149.315C316.992 149.496 317.077 149.72 317.083 149.998L318.409 150.021C318.409 149.387 318.217 148.883 317.823 148.498C317.428 148.123 316.897 147.925 316.24 147.914C315.482 147.9 314.876 148.135 314.433 148.605C313.99 149.087 313.767 149.729 313.753 150.552L313.751 150.641C313.737 151.487 313.948 152.158 314.374 152.644C314.8 153.13 315.397 153.385 316.155 153.398C316.556 153.405 316.925 153.323 317.262 153.173C317.599 153.012 317.871 152.783 318.065 152.486C318.271 152.189 318.366 151.868 318.383 151.512L317.057 151.489C317.042 151.722 316.95 151.91 316.791 152.052C316.622 152.193 316.409 152.256 316.153 152.252C315.807 152.246 315.553 152.13 315.39 151.883Z" fill="black" stroke="black" stroke-width="0.01" stroke-linejoin="round"/>
<path d="M318.98 150.721C318.966 151.556 319.177 152.227 319.625 152.724C320.073 153.222 320.682 153.477 321.439 153.49C322.208 153.504 322.825 153.27 323.279 152.788C323.744 152.306 323.979 151.654 323.993 150.842L323.999 150.486C323.957 149.728 323.711 149.134 323.273 148.693C322.824 148.24 322.248 148.018 321.535 148.006C321.023 147.997 320.586 148.101 320.204 148.317C319.821 148.532 319.515 148.85 319.307 149.258C319.099 149.666 318.991 150.132 318.982 150.654L318.98 150.721ZM320.695 149.527C320.889 149.263 321.17 149.135 321.515 149.141C321.861 149.147 322.126 149.285 322.321 149.566C322.506 149.837 322.589 150.216 322.58 150.717C322.57 151.296 322.473 151.706 322.279 151.969C322.074 152.233 321.805 152.351 321.459 152.345C321.114 152.339 320.838 152.2 320.653 151.941C320.479 151.671 320.386 151.28 320.395 150.779C320.405 150.212 320.512 149.802 320.695 149.527Z" fill="black" stroke="black" stroke-width="0.01" stroke-linejoin="round"/>
<path d="M324.919 148.165L324.826 153.449L326.241 153.474L326.306 149.736C326.491 149.405 326.783 149.244 327.184 149.251C327.474 149.256 327.684 149.326 327.793 149.461C327.913 149.608 327.976 149.832 327.971 150.132L327.912 153.503L329.327 153.528L329.379 149.89C329.554 149.492 329.847 149.297 330.27 149.304C330.571 149.309 330.781 149.38 330.89 149.526C331.01 149.662 331.062 149.886 331.057 150.186L330.998 153.557L332.413 153.581L332.472 150.199C332.484 149.532 332.359 149.029 332.086 148.69C331.802 148.352 331.382 148.177 330.803 148.167C330.123 148.155 329.584 148.413 329.207 148.941C328.96 148.402 328.497 148.127 327.806 148.115C327.171 148.104 326.666 148.318 326.279 148.779L326.244 148.188L324.919 148.165Z" fill="black" stroke="black" stroke-width="0.01" stroke-linejoin="round"/>
<path d="M249.005 183.047L250.476 184.037L252.136 181.434L253.818 184.137L255.289 183.092L253.35 180.633L256.314 179.809L255.768 178.129L252.96 179.264L253.15 175.971H251.334L251.523 179.197L248.637 178.04L248.091 179.709L250.999 180.533L249.005 183.047Z" fill="black" stroke="black" stroke-width="0.01" stroke-linejoin="round"/>
<path d="M257.587 183.047L259.058 184.037L260.718 181.434L262.401 184.137L263.872 183.092L261.933 180.633L264.897 179.809L264.351 178.129L261.543 179.264L261.732 175.971H259.916L260.105 179.197L257.22 178.04L256.674 179.709L259.582 180.533L257.587 183.047Z" fill="black" stroke="black" stroke-width="0.01" stroke-linejoin="round"/>
<path d="M266.17 183.047L267.641 184.037L269.301 181.434L270.983 184.137L272.454 183.092L270.515 180.633L273.479 179.809L272.933 178.129L270.125 179.264L270.315 175.971H268.498L268.688 179.197L265.802 178.04L265.256 179.709L268.164 180.533L266.17 183.047Z" fill="black" stroke="black" stroke-width="0.01" stroke-linejoin="round"/>
<path d="M274.752 183.047L276.223 184.037L277.883 181.434L279.566 184.137L281.036 183.092L279.098 180.633L282.062 179.809L281.516 178.129L278.708 179.264L278.897 175.971H277.081L277.27 179.197L274.385 178.04L273.839 179.709L276.747 180.533L274.752 183.047Z" fill="black" stroke="black" stroke-width="0.01" stroke-linejoin="round"/>
<path d="M283.335 183.047L284.806 184.037L286.466 181.434L288.148 184.137L289.619 183.092L287.68 180.633L290.644 179.809L290.098 178.129L287.29 179.264L287.48 175.971H285.664L285.853 179.197L282.967 178.04L282.421 179.709L285.329 180.533L283.335 183.047Z" fill="black" stroke="black" stroke-width="0.01" stroke-linejoin="round"/>
<path d="M291.917 183.047L293.388 184.037L295.048 181.434L296.731 184.137L298.201 183.092L296.263 180.633L299.227 179.809L298.681 178.129L295.873 179.264L296.062 175.971H294.246L294.435 179.197L291.55 178.04L291.004 179.709L293.912 180.533L291.917 183.047Z" fill="black" stroke="black" stroke-width="0.01" stroke-linejoin="round"/>
<path d="M300.5 183.047L301.971 184.037L303.631 181.434L305.313 184.137L306.784 183.092L304.845 180.633L307.809 179.809L307.263 178.129L304.455 179.264L304.645 175.971H302.828L303.018 179.197L300.132 178.04L299.586 179.709L302.494 180.533L300.5 183.047Z" fill="black" stroke="black" stroke-width="0.01" stroke-linejoin="round"/>
<path d="M309.082 183.047L310.553 184.037L312.213 181.434L313.896 184.137L315.366 183.092L313.428 180.633L316.392 179.809L315.846 178.129L313.038 179.264L313.227 175.971H311.411L311.6 179.197L308.715 178.04L308.169 179.709L311.077 180.533L309.082 183.047Z" fill="black" stroke="black" stroke-width="0.01" stroke-linejoin="round"/>
<path d="M204.508 124.805H127.31C125.092 124.805 123.294 126.599 123.294 128.813V163.931C123.294 166.145 125.092 167.94 127.31 167.94H159.696L166.575 176.749L172.307 167.94H204.508C206.725 167.94 208.523 166.145 208.523 163.931V128.813C208.523 126.599 206.725 124.805 204.508 124.805Z" fill="#FEFEFE"/>
<path d="M204.508 124.804C204.508 124.804 204.635 124.797 204.889 124.803C205.139 124.828 205.523 124.864 205.99 125.047C206.455 125.223 207.017 125.531 207.518 126.078C208.025 126.611 208.456 127.402 208.576 128.37C208.649 132.195 208.636 137.756 208.668 144.801C208.677 148.323 208.686 152.212 208.697 156.431C208.701 158.541 208.705 160.733 208.71 163.004C208.7 163.564 208.752 164.149 208.631 164.755C208.515 165.35 208.261 165.921 207.897 166.417C207.178 167.417 205.974 168.085 204.696 168.132C194.984 168.146 184.091 168.161 172.307 168.178L172.507 168.071C170.707 170.841 168.763 173.833 166.781 176.884L166.591 177.172L166.38 176.901C164.208 174.123 161.872 171.135 159.498 168.097L159.695 168.193C150.775 168.195 141.441 168.197 131.864 168.199C130.746 168.199 129.631 168.199 128.52 168.199C127.955 168.189 127.432 168.224 126.828 168.17C126.242 168.105 125.672 167.914 125.164 167.617C124.148 167.029 123.396 166.011 123.144 164.87C123.006 164.293 123.043 163.714 123.037 163.183V161.55C123.038 157.2 123.041 152.915 123.042 148.706C123.044 144.495 123.046 140.359 123.049 136.309C123.049 134.283 123.049 132.278 123.051 130.297L123.052 128.817C123.055 128.295 123.152 127.775 123.34 127.291C123.712 126.32 124.45 125.509 125.363 125.04C125.818 124.807 126.316 124.65 126.822 124.598C127.343 124.55 127.805 124.574 128.287 124.568C129.244 124.569 130.194 124.571 131.138 124.572C133.025 124.574 134.888 124.575 136.724 124.577C140.394 124.581 143.957 124.585 147.403 124.59C154.293 124.601 160.712 124.613 166.573 124.623C178.28 124.656 187.759 124.685 194.329 124.704C197.594 124.726 200.133 124.74 201.876 124.751C202.726 124.762 203.379 124.771 203.838 124.777C204.28 124.786 204.508 124.804 204.508 124.804C204.508 124.804 204.28 124.822 203.838 124.829C203.379 124.835 202.726 124.844 201.876 124.855C200.133 124.866 197.595 124.884 194.329 124.905C187.759 124.924 178.28 124.952 166.573 124.987C160.712 124.996 154.293 125.006 147.403 125.017C143.957 125.021 140.394 125.025 136.724 125.03C134.888 125.032 133.025 125.035 131.138 125.037C130.194 125.037 129.244 125.037 128.287 125.038C127.813 125.044 127.315 125.024 126.877 125.067C126.425 125.114 125.985 125.254 125.581 125.463C124.771 125.88 124.117 126.603 123.789 127.464C123.623 127.892 123.537 128.352 123.534 128.817L123.537 130.297C123.538 132.278 123.539 134.283 123.541 136.309C123.543 140.359 123.545 144.495 123.547 148.706C123.549 152.915 123.55 157.2 123.551 161.55L123.552 163.183C123.557 163.74 123.524 164.264 123.645 164.758C123.867 165.758 124.529 166.656 125.424 167.173C125.87 167.433 126.37 167.6 126.886 167.657C127.385 167.704 127.974 167.674 128.52 167.683C129.631 167.683 130.746 167.683 131.864 167.683C141.441 167.685 150.775 167.687 159.695 167.689H159.819L159.894 167.786C162.267 170.826 164.597 173.818 166.767 176.599L166.367 176.615C168.354 173.567 170.303 170.58 172.108 167.812L172.177 167.704H172.307C184.085 167.714 194.971 167.724 204.678 167.733C205.835 167.694 206.927 167.094 207.584 166.188C207.916 165.739 208.15 165.22 208.257 164.681C208.368 164.148 208.324 163.576 208.335 163.004C208.34 160.733 208.345 158.541 208.349 156.431C208.359 152.212 208.369 148.323 208.378 144.801C208.397 137.775 208.412 132.212 208.422 128.386C208.319 127.455 207.915 126.683 207.431 126.157C206.954 125.616 206.412 125.306 205.961 125.121C205.042 124.759 204.499 124.844 204.508 124.804Z" fill="#0D151D"/>
<path d="M151.453 134.715V136.014H150.603V134.705L149.181 132.346H150.084L151.066 133.976L152.046 132.346H152.882L151.453 134.715Z" fill="#0D151D"/>
<path d="M152.854 134.18C152.854 133.091 153.704 132.284 154.864 132.284C156.018 132.284 156.873 133.085 156.873 134.18C156.873 135.276 156.018 136.078 154.864 136.078C153.704 136.078 152.854 135.27 152.854 134.18ZM156.012 134.18C156.012 133.484 155.52 133.007 154.864 133.007C154.208 133.007 153.714 133.484 153.714 134.18C153.714 134.877 154.208 135.354 154.864 135.354C155.52 135.354 156.012 134.877 156.012 134.18Z" fill="#0D151D"/>
<path d="M157.486 134.4V132.346H158.336V134.369C158.336 135.066 158.64 135.354 159.155 135.354C159.674 135.354 159.972 135.066 159.972 134.369V132.346H160.812V134.4C160.812 135.48 160.192 136.077 159.148 136.077C158.104 136.077 157.486 135.48 157.486 134.4Z" fill="#0D151D"/>
<path d="M163.997 136.014L163.288 134.993H163.247H162.507V136.014H161.657V132.346H163.247C164.228 132.346 164.842 132.855 164.842 133.677C164.842 134.228 164.564 134.631 164.086 134.835L164.91 136.014H163.997ZM163.199 133.037H162.507V134.316H163.199C163.719 134.316 163.981 134.075 163.981 133.677C163.981 133.274 163.719 133.037 163.199 133.037Z" fill="#0D151D"/>
<path d="M166.772 134.18C166.772 133.075 167.622 132.284 168.766 132.284C169.401 132.284 169.93 132.515 170.277 132.934L169.731 133.436C169.484 133.154 169.175 133.007 168.807 133.007C168.121 133.007 167.632 133.49 167.632 134.18C167.632 134.872 168.121 135.354 168.807 135.354C169.175 135.354 169.484 135.207 169.731 134.919L170.277 135.422C169.93 135.847 169.402 136.078 168.762 136.078C167.623 136.078 166.772 135.286 166.772 134.18Z" fill="#0D151D"/>
<path d="M170.545 134.18C170.545 133.091 171.393 132.284 172.553 132.284C173.707 132.284 174.562 133.085 174.562 134.18C174.562 135.276 173.707 136.078 172.553 136.078C171.393 136.078 170.545 135.27 170.545 134.18ZM173.703 134.18C173.703 133.484 173.209 133.007 172.553 133.007C171.897 133.007 171.404 133.484 171.404 134.18C171.404 134.877 171.897 135.354 172.553 135.354C173.209 135.354 173.703 134.877 173.703 134.18Z" fill="#0D151D"/>
<path d="M175.208 132.346H176.875C178.078 132.346 178.902 133.07 178.902 134.18C178.902 135.291 178.078 136.014 176.875 136.014H175.208V132.346ZM176.835 135.317C177.564 135.317 178.041 134.883 178.041 134.18C178.041 133.479 177.564 133.043 176.835 133.043H176.057V135.317H176.835Z" fill="#0D151D"/>
<path d="M182.39 135.333V136.014H179.546V132.346H182.322V133.028H180.392V133.824H182.097V134.484H180.392V135.333H182.39Z" fill="#0D151D"/>
<path d="M196.974 159.991H134.841C132.9 159.991 131.328 158.42 131.328 156.482V143.376C131.328 141.438 132.9 139.866 134.841 139.866H196.974C198.915 139.866 200.49 141.438 200.49 143.376V156.482C200.49 158.42 198.915 159.991 196.974 159.991Z" fill="#F2F1EE"/>
<path d="M145.386 151.161C145.386 152.943 144.007 154.098 142.138 154.098C139.573 154.098 138.221 152.26 138.221 149.211C138.221 145.912 139.978 144.214 142.557 144.214C143.394 144.214 144.175 144.353 144.775 144.714L144.482 145.285C143.979 144.966 143.296 144.84 142.557 144.84C140.369 144.84 138.933 146.274 138.933 149.1C138.933 149.393 138.947 149.824 139.016 150.27C139.42 148.99 140.647 148.265 142.125 148.265C144.077 148.265 145.386 149.406 145.386 151.161ZM144.676 151.176C144.676 149.782 143.673 148.877 142.028 148.877C140.424 148.877 139.322 149.894 139.322 151.203C139.322 152.344 140.285 153.486 142.111 153.486C143.631 153.486 144.676 152.581 144.676 151.176Z" fill="#4A6CD1"/>
<path d="M158.342 151.328H156.293V154.029H155.596V151.328H150.032V150.812L155.33 144.285H156.125L150.925 150.702H155.61V148.321H156.293V150.702H158.342V151.328Z" fill="#4A6CD1"/>
<path d="M169.178 151.286C169.178 152.902 168.007 154.099 165.762 154.099C164.326 154.099 163.001 153.57 162.318 152.79L162.681 152.247C163.28 152.929 164.423 153.445 165.762 153.445C167.519 153.445 168.453 152.61 168.453 151.286C168.453 149.978 167.561 149.128 165.608 149.128H164.995V148.614L167.882 144.923H162.681V144.284H168.801V144.785L165.874 148.53C168.09 148.585 169.178 149.699 169.178 151.286Z" fill="#4A6CD1"/>
<path d="M180.974 144.285V144.785L176.777 154.029H175.996L180.152 144.924H174.673V146.79H173.976V144.285H180.974Z" fill="#4A6CD1"/>
<path d="M185.954 149.157C185.954 146.108 187.53 144.214 189.775 144.214C192.019 144.214 193.595 146.108 193.595 149.157C193.595 152.206 192.019 154.098 189.775 154.098C187.53 154.098 185.954 152.206 185.954 149.157ZM192.885 149.157C192.885 146.441 191.615 144.868 189.775 144.868C187.934 144.868 186.666 146.441 186.666 149.157C186.666 151.871 187.934 153.445 189.775 153.445C191.615 153.445 192.885 151.871 192.885 149.157Z" fill="#4A6CD1"/>
<path d="M404.311 342.394H238.262C234.337 342.394 231.156 339.219 231.156 335.299V249.472C231.156 245.552 234.337 242.376 238.262 242.376H404.311C408.235 242.376 411.418 245.552 411.418 249.472V335.299C411.418 339.219 408.235 342.394 404.311 342.394Z" fill="#FEFEFE"/>
<path d="M404.311 342.393C404.309 342.362 404.795 342.403 405.712 342.225C406.608 342.028 407.99 341.563 409.288 340.279C409.928 339.639 410.516 338.786 410.899 337.739C411.107 337.22 411.216 336.642 411.297 336.04C411.343 335.436 411.334 334.793 411.33 334.125C411.323 331.455 411.314 328.379 411.304 324.914C411.282 311.043 411.25 290.987 411.211 266.209C411.208 263.111 411.205 259.94 411.201 256.698C411.2 255.075 411.198 253.435 411.197 251.779C411.157 250.121 411.373 248.423 410.692 246.907C410.078 245.388 408.894 244.089 407.397 243.341C406.652 242.966 405.834 242.725 404.994 242.641C404.166 242.577 403.262 242.619 402.39 242.607C398.869 242.611 395.284 242.612 391.636 242.615C377.042 242.623 361.448 242.632 345.04 242.641C312.223 242.649 276.145 242.657 238.276 242.665C237.138 242.671 236.011 242.957 235.01 243.487C234.026 244.04 233.159 244.818 232.549 245.767C231.946 246.716 231.545 247.806 231.473 248.928C231.418 250.053 231.458 251.256 231.446 252.412C231.446 257.081 231.444 261.721 231.444 266.327C231.443 275.536 231.441 284.611 231.44 293.527C231.438 302.445 231.436 311.204 231.433 319.783C231.431 324.072 231.43 328.315 231.428 332.511C231.436 333.553 231.41 334.619 231.444 335.635C231.492 336.637 231.762 337.622 232.229 338.505C233.167 340.271 234.904 341.568 236.837 341.976C237.791 342.201 238.811 342.106 239.838 342.128C240.856 342.128 241.874 342.129 242.886 342.131C244.911 342.132 246.924 342.133 248.923 342.134C252.921 342.136 256.864 342.138 260.752 342.14C268.525 342.145 276.073 342.15 283.37 342.153C297.963 342.166 311.558 342.178 323.968 342.19C348.783 342.229 368.864 342.259 382.755 342.281C389.688 342.304 395.073 342.323 398.738 342.335C400.556 342.348 401.947 342.359 402.894 342.365C403.831 342.375 404.311 342.393 404.311 342.393C404.311 342.393 403.831 342.413 402.894 342.423C401.947 342.429 400.556 342.44 398.738 342.453C395.073 342.465 389.688 342.483 382.755 342.508C368.864 342.529 348.783 342.56 323.968 342.598C311.558 342.609 297.963 342.62 283.37 342.634C276.073 342.638 268.525 342.645 260.752 342.649C256.864 342.651 252.921 342.652 248.923 342.655C246.924 342.656 244.911 342.657 242.886 342.658C241.874 342.658 240.856 342.659 239.838 342.659C238.833 342.638 237.783 342.74 236.726 342.499C234.639 342.059 232.766 340.665 231.752 338.761C231.248 337.808 230.954 336.743 230.903 335.662C230.866 334.595 230.892 333.566 230.883 332.511C230.882 328.315 230.881 324.072 230.878 319.783C230.876 311.204 230.874 302.445 230.872 293.527C230.871 284.611 230.868 275.536 230.867 266.327C230.867 261.721 230.866 257.081 230.866 252.412C230.88 251.236 230.836 250.099 230.895 248.883C230.973 247.665 231.408 246.48 232.062 245.451C232.725 244.422 233.664 243.579 234.733 242.979C235.817 242.403 237.045 242.09 238.276 242.084C276.145 242.092 312.223 242.101 345.04 242.109C361.448 242.118 377.042 242.127 391.636 242.136C395.284 242.138 398.869 242.14 402.39 242.142C403.277 242.156 404.128 242.113 405.04 242.182C405.936 242.275 406.809 242.532 407.604 242.933C409.197 243.734 410.457 245.122 411.108 246.741C411.439 247.547 411.614 248.412 411.628 249.275C411.632 250.114 411.634 250.949 411.636 251.779C411.635 253.435 411.633 255.075 411.632 256.698C411.628 259.94 411.625 263.111 411.622 266.209C411.583 290.987 411.551 311.043 411.529 324.914C411.519 328.379 411.511 331.455 411.503 334.125C411.502 334.791 411.508 335.433 411.455 336.056C411.367 336.671 411.252 337.26 411.035 337.788C410.634 338.854 410.027 339.717 409.372 340.362C408.037 341.653 406.631 342.104 405.723 342.283C405.258 342.355 404.906 342.395 404.668 342.39C404.43 342.398 404.311 342.393 404.311 342.393Z" fill="#0D151D"/>
<path d="M293.96 277.716V278.965H288.744V272.24H293.834V273.489H290.294V274.949H293.421V276.16H290.294V277.716H293.96Z" fill="#0D151D"/>
<path d="M301.382 272.24V278.965H300.102L296.743 274.882V278.965H295.203V272.24H296.491L299.842 276.322V272.24H301.382Z" fill="#0D151D"/>
<path d="M304.376 273.508H302.221V272.24H308.09V273.508H305.936V278.965H304.376V273.508Z" fill="#0D151D"/>
<path d="M314.143 277.716V278.965H308.928V272.24H314.018V273.489H310.478V274.949H313.604V276.16H310.478V277.716H314.143Z" fill="#0D151D"/>
<path d="M319.679 278.965L318.38 277.092H318.303H316.946V278.965H315.388V272.24H318.303C320.102 272.24 321.228 273.171 321.228 274.681C321.228 275.689 320.718 276.429 319.843 276.804L321.353 278.965H319.679ZM318.217 273.508H316.946V275.853H318.217C319.17 275.853 319.651 275.411 319.651 274.681C319.651 273.941 319.17 273.508 318.217 273.508Z" fill="#0D151D"/>
<path d="M324.763 275.603C324.763 273.576 326.321 272.124 328.419 272.124C329.584 272.124 330.555 272.547 331.192 273.316L330.19 274.238C329.738 273.719 329.169 273.45 328.496 273.45C327.236 273.45 326.34 274.334 326.34 275.603C326.34 276.871 327.236 277.756 328.496 277.756C329.169 277.756 329.738 277.484 330.19 276.957L331.192 277.881C330.555 278.658 329.584 279.081 328.411 279.081C326.321 279.081 324.763 277.63 324.763 275.603Z" fill="#0D151D"/>
<path d="M331.675 275.603C331.675 273.604 333.234 272.124 335.36 272.124C337.477 272.124 339.045 273.594 339.045 275.603C339.045 277.611 337.477 279.081 335.36 279.081C333.234 279.081 331.675 277.601 331.675 275.603ZM337.467 275.603C337.467 274.325 336.563 273.45 335.36 273.45C334.158 273.45 333.252 274.325 333.252 275.603C333.252 276.88 334.158 277.756 335.36 277.756C336.563 277.756 337.467 276.88 337.467 275.603Z" fill="#0D151D"/>
<path d="M340.221 272.24H343.281C345.486 272.24 346.996 273.566 346.996 275.603C346.996 277.64 345.486 278.965 343.281 278.965H340.221V272.24ZM343.205 277.688C344.542 277.688 345.418 276.89 345.418 275.603C345.418 274.316 344.542 273.518 343.205 273.518H341.781V277.688H343.205Z" fill="#0D151D"/>
<path d="M353.387 277.716V278.965H348.172V272.24H353.262V273.489H349.721V274.949H352.849V276.16H349.721V277.716H353.387Z" fill="#0D151D"/>
<path d="M268.401 323.943H252.041C249.608 323.943 247.636 321.975 247.636 319.546V294.102C247.636 291.673 249.608 289.705 252.041 289.705H268.401C270.833 289.705 272.804 291.673 272.804 294.102V319.546C272.804 321.975 270.833 323.943 268.401 323.943Z" fill="#E7E6E0"/>
<path d="M393.983 323.547H377.623C375.191 323.547 373.219 321.578 373.219 319.15V293.706C373.219 291.276 375.191 289.309 377.623 289.309H393.983C396.416 289.309 398.387 291.276 398.387 293.706V319.15C398.387 321.578 396.416 323.547 393.983 323.547Z" fill="#E7E6E0"/>
<path d="M299.83 323.943H283.47C281.037 323.943 279.065 321.975 279.065 319.546V294.102C279.065 291.673 281.037 289.705 283.47 289.705H299.83C302.262 289.705 304.233 291.673 304.233 294.102V319.546C304.233 321.975 302.262 323.943 299.83 323.943Z" fill="#E7E6E0"/>
<path d="M331.258 323.943H314.9C312.466 323.943 310.495 321.975 310.495 319.546V294.102C310.495 291.673 312.466 289.705 314.9 289.705H331.258C333.692 289.705 335.661 291.673 335.661 294.102V319.546C335.661 321.975 333.692 323.943 331.258 323.943Z" fill="#E7E6E0"/>
<path d="M362.688 323.943H346.328C343.896 323.943 341.924 321.975 341.924 319.546V294.102C341.924 291.673 343.896 289.705 346.328 289.705H362.688C365.121 289.705 367.092 291.673 367.092 294.102V319.546C367.092 321.975 365.121 323.943 362.688 323.943Z" fill="#E7E6E0"/>
<path d="M265.146 309.468C265.146 311.913 263.253 313.5 260.689 313.5C257.171 313.5 255.317 310.977 255.317 306.794C255.317 302.268 257.726 299.938 261.264 299.938C262.411 299.938 263.483 300.128 264.305 300.625L263.903 301.409C263.215 300.971 262.277 300.797 261.264 300.797C258.261 300.797 256.29 302.765 256.29 306.642C256.29 307.043 256.31 307.634 256.405 308.246C256.961 306.489 258.643 305.497 260.672 305.497C263.349 305.497 265.146 307.061 265.146 309.468ZM264.17 309.488C264.17 307.578 262.794 306.337 260.537 306.337C258.337 306.337 256.825 307.73 256.825 309.525C256.825 311.091 258.146 312.657 260.651 312.657C262.736 312.657 264.17 311.417 264.17 309.488Z" fill="#4A6CD1"/>
<path d="M296.897 315.301C296.897 315.461 294.286 315.59 291.065 315.59C287.843 315.59 285.233 315.461 285.233 315.301C285.233 315.141 287.843 315.012 291.065 315.012C294.286 315.012 296.897 315.141 296.897 315.301Z" fill="#4A6CD1"/>
<path d="M245.329 252.356C245.329 253.862 244.106 255.082 242.6 255.082C241.093 255.082 239.871 253.862 239.871 252.356C239.871 250.852 241.093 249.63 242.6 249.63C244.106 249.63 245.329 250.852 245.329 252.356Z" fill="#0D151D"/>
<path d="M253.196 252.356C253.196 253.862 251.974 255.082 250.466 255.082C248.959 255.082 247.737 253.862 247.737 252.356C247.737 250.852 248.959 249.63 250.466 249.63C251.974 249.63 253.196 250.852 253.196 252.356Z" fill="#0D151D"/>
<path d="M260.918 252.356C260.918 253.862 259.697 255.082 258.189 255.082C256.682 255.082 255.46 253.862 255.46 252.356C255.46 250.852 256.682 249.63 258.189 249.63C259.697 249.63 260.918 250.852 260.918 252.356Z" fill="#0D151D"/>
<path d="M411.686 260.036C411.686 260.196 371.328 260.325 321.554 260.325C271.763 260.325 231.412 260.196 231.412 260.036C231.412 259.875 271.763 259.746 321.554 259.746C371.328 259.746 411.686 259.875 411.686 260.036Z" fill="#0D151D"/>
<path d="M425.947 433.583C440.241 426.756 456.564 413.853 463.421 398.618C447.986 405.625 434.659 418.062 425.947 433.583Z" fill="#0D151D"/>
<path d="M428.008 410.324C442.303 403.498 458.627 390.596 465.484 375.358C450.049 382.365 436.721 394.802 428.008 410.324Z" fill="#0D151D"/>
<path d="M431.22 387.648C445.514 380.822 461.838 367.917 468.695 352.682C453.26 359.688 439.931 372.126 431.22 387.648Z" fill="#0D151D"/>
<path d="M435.451 363.868C448.832 355.109 463.51 340.046 468.509 323.995C454.019 333.092 442.26 347.275 435.451 363.868Z" fill="#0D151D"/>
<path d="M440.297 345.601C449.725 332.069 458.186 312.185 457.306 295.317C446.961 309.612 440.912 327.497 440.297 345.601Z" fill="#0D151D"/>
<path d="M437.874 354.293C435.058 336.691 427.167 314.751 414.875 302.004C417.584 320.879 425.764 339.478 437.874 354.293Z" fill="#0D151D"/>
<path d="M434.029 373.856C429.644 355.773 419.618 333.612 405.762 321.407C410.138 340.827 420.192 359.481 434.029 373.856Z" fill="#0D151D"/>
<path d="M429.672 397.696C425.289 379.611 415.264 357.453 401.407 345.249C405.784 364.668 415.837 383.322 429.672 397.696Z" fill="#0D151D"/>
<path d="M426.628 426.863C422.245 408.78 412.218 386.62 398.362 374.416C402.738 393.835 412.793 412.489 426.628 426.863Z" fill="#0D151D"/>
<path d="M440.803 342.104C440.794 342.101 440.76 342.195 440.703 342.382C440.64 342.599 440.561 342.871 440.462 343.21C440.254 343.984 439.962 345.054 439.594 346.41C438.841 349.191 437.838 353.237 436.674 358.254C435.501 363.269 434.232 369.27 432.946 375.958C431.687 382.65 430.434 390.032 429.318 397.813C428.221 405.599 427.375 413.04 426.717 419.82C426.087 426.602 425.637 432.72 425.365 437.863C425.084 443.005 424.92 447.17 424.868 450.049C424.843 451.455 424.824 452.563 424.809 453.365C424.809 453.716 424.808 454 424.809 454.227C424.812 454.422 424.817 454.522 424.827 454.522C424.836 454.522 424.849 454.423 424.864 454.229C424.881 454.003 424.901 453.719 424.924 453.368C424.965 452.568 425.019 451.46 425.091 450.057C425.211 447.181 425.434 443.022 425.765 437.886C426.089 432.752 426.582 426.643 427.239 419.87C427.924 413.101 428.786 405.669 429.881 397.893C430.995 390.121 432.236 382.745 433.463 376.054C434.719 369.368 435.944 363.364 437.067 358.341C438.179 353.318 439.123 349.26 439.809 346.465C440.132 345.098 440.388 344.019 440.573 343.239C440.649 342.895 440.71 342.618 440.759 342.396C440.797 342.206 440.813 342.106 440.803 342.104Z" fill="#0D151D"/>
<path d="M418.708 444.156C423.155 430.529 425.25 411.914 420.396 398.227C415.382 412.723 414.782 429.059 418.708 444.156Z" fill="#283C46"/>
<path d="M406.332 428.877C410.779 415.251 412.875 396.636 408.021 382.951C403.007 397.447 402.405 413.781 406.332 428.877Z" fill="#283C46"/>
<path d="M394.974 413.181C399.419 399.555 401.514 380.941 396.66 367.254C391.647 381.75 391.047 398.085 394.974 413.181Z" fill="#283C46"/>
<path d="M383.571 396.147C386.349 381.974 386.212 363.17 379.788 350.234C376.55 365.35 377.896 381.681 383.571 396.147Z" fill="#283C46"/>
<path d="M375.748 382C373.408 367.611 366.783 350.071 356.409 340.574C358.655 356.032 365.535 370.766 375.748 382Z" fill="#283C46"/>
<path d="M379.399 388.813C367.447 380.168 349.964 372.317 335.252 372.907C347.886 382.386 363.587 388.045 379.399 388.813Z" fill="#283C46"/>
<path d="M388.563 403.072C375.404 395.184 356.529 388.63 341.212 390.589C355.147 399.281 371.991 403.72 388.563 403.072Z" fill="#283C46"/>
<path d="M399.924 420.227C386.764 412.341 367.89 405.785 352.574 407.745C366.509 416.435 383.351 420.875 399.924 420.227Z" fill="#283C46"/>
<path d="M415.176 439.691C402.016 431.804 383.141 425.249 367.825 427.208C381.761 435.899 398.603 440.34 415.176 439.691Z" fill="#283C46"/>
<path d="M374.012 379.542C374.004 379.547 374.038 379.625 374.111 379.772C374.201 379.947 374.311 380.159 374.447 380.42C374.774 381.024 375.221 381.848 375.785 382.887C376.948 385.03 378.699 388.091 380.923 391.841C385.366 399.34 391.824 409.52 399.607 420.313C403.509 425.706 407.364 430.739 410.951 435.254C414.563 439.748 417.885 443.739 420.756 447.02C423.617 450.309 425.979 452.93 427.649 454.705C428.462 455.567 429.104 456.248 429.575 456.747C429.781 456.957 429.948 457.129 430.087 457.27C430.203 457.385 430.267 457.442 430.274 457.435C430.281 457.429 430.231 457.36 430.127 457.232C430 457.081 429.846 456.897 429.656 456.674C429.203 456.157 428.586 455.453 427.807 454.564C426.185 452.745 423.869 450.088 421.047 446.769C418.216 443.46 414.929 439.448 411.344 434.942C407.782 430.418 403.944 425.381 400.049 419.997C392.277 409.217 385.775 399.085 381.25 391.643C378.988 387.922 377.187 384.892 375.968 382.783C375.367 381.766 374.891 380.958 374.542 380.367C374.389 380.117 374.262 379.913 374.159 379.745C374.07 379.607 374.021 379.537 374.012 379.542Z" fill="#0D151D"/>
<path d="M391.259 444.022H452.719V455.852H446.404L441.085 489.586H403.094L397.625 455.852H391.259V444.022Z" fill="#4A6CD1"/>
<path d="M391.259 455.604C391.259 455.448 404.919 455.319 421.765 455.319C438.618 455.319 452.276 455.448 452.276 455.604C452.276 455.762 438.618 455.89 421.765 455.89C404.919 455.89 391.259 455.762 391.259 455.604Z" fill="#0D151D"/>
</g>
</g>
<defs>
<clipPath id="clip0_155_40">
<rect width="478" height="494" fill="white"/>
</clipPath>
</defs>
</svg>
